<svg width="65" height="65" viewBox="0 0 73 73" fill="none" xmlns="http://www.w3.org/2000/svg">
<path d="M47.75 36.5C47.75 39.4837 46.5647 42.3452 44.455 44.455C42.3452 46.5647 39.4837 47.75 36.5 47.75C33.5163 47.75 30.6548 46.5647 28.545 44.455C26.4353 42.3452 25.25 39.4837 25.25 36.5C25.25 35.8587 25.3175 35.2325 25.4337 34.625H21.5V49.6137C21.5 50.6562 22.3437 51.5 23.3862 51.5H49.6175C50.1171 51.499 50.5959 51.2998 50.9489 50.9462C51.3018 50.5926 51.5 50.1134 51.5 49.6137V34.625H47.5662C47.6825 35.2325 47.75 35.8587 47.75 36.5ZM36.5 44C37.4852 43.9998 38.4606 43.8055 39.3707 43.4282C40.2808 43.051 41.1076 42.4982 41.8041 41.8014C42.5005 41.1046 43.0529 40.2775 43.4297 39.3672C43.8064 38.457 44.0002 37.4814 44 36.4962C43.9998 35.5111 43.8055 34.5356 43.4282 33.6255C43.051 32.7155 42.4982 31.8886 41.8014 31.1922C41.1046 30.4957 40.2775 29.9434 39.3672 29.5666C38.457 29.1898 37.4814 28.996 36.4962 28.9962C34.5066 28.9967 32.5987 29.7876 31.1922 31.1948C29.7857 32.602 28.9958 34.5104 28.9962 36.5C28.9967 38.4896 29.7876 40.3976 31.1948 41.8041C32.602 43.2106 34.5104 44.0005 36.5 44ZM45.5 28.625H49.9962C50.295 28.625 50.5815 28.5066 50.7931 28.2957C51.0046 28.0849 51.124 27.7987 51.125 27.5V23.0037C51.125 22.7044 51.0061 22.4173 50.7944 22.2056C50.5827 21.9939 50.2956 21.875 49.9962 21.875H45.5C45.2006 21.875 44.9135 21.9939 44.7019 22.2056C44.4902 22.4173 44.3713 22.7044 44.3713 23.0037V27.5C44.375 28.1187 44.8812 28.625 45.5 28.625ZM36.5 0.5C26.9522 0.5 17.7955 4.29285 11.0442 11.0442C4.29285 17.7955 0.5 26.9522 0.5 36.5C0.5 46.0478 4.29285 55.2045 11.0442 61.9558C17.7955 68.7072 26.9522 72.5 36.5 72.5C41.2276 72.5 45.9089 71.5688 50.2766 69.7597C54.6443 67.9505 58.6129 65.2988 61.9558 61.9558C65.2988 58.6129 67.9505 54.6443 69.7597 50.2766C71.5688 45.9089 72.5 41.2276 72.5 36.5C72.5 31.7724 71.5688 27.0911 69.7597 22.7234C67.9505 18.3557 65.2988 14.3871 61.9558 11.0442C58.6129 7.70125 54.6443 5.04951 50.2766 3.24034C45.9089 1.43117 41.2276 0.5 36.5 0.5ZM55.25 51.0837C55.25 53.375 53.375 55.25 51.0837 55.25H21.9162C19.625 55.25 17.75 53.375 17.75 51.0837V21.9162C17.75 19.625 19.625 17.75 21.9162 17.75H51.0837C53.375 17.75 55.25 19.625 55.25 21.9162V51.0837Z" fill="#FFBE41"/>
</svg>
