<svg width="65" height="65" viewBox="0 0 73 73" fill="none" xmlns="http://www.w3.org/2000/svg">
<path d="M36.5 0.5C16.6175 0.5 0.5 16.6175 0.5 36.5C0.5 56.3825 16.6175 72.5 36.5 72.5C56.3825 72.5 72.5 56.3825 72.5 36.5C72.5 16.6175 56.3825 0.5 36.5 0.5ZM27.6875 51.4212H20.3975V27.9612H27.6875V51.4212ZM23.9975 25.0812C21.695 25.0812 20.2062 23.45 20.2062 21.4325C20.2062 19.3737 21.74 17.7912 24.0912 17.7912C26.4425 17.7912 27.8825 19.3737 27.9275 21.4325C27.9275 23.45 26.4425 25.0812 23.9975 25.0812ZM54.3125 51.4212H47.0225V38.42C47.0225 35.3937 45.965 33.3387 43.3288 33.3387C41.315 33.3387 40.1188 34.73 39.59 36.0687C39.395 36.545 39.3462 37.22 39.3462 37.8913V51.4175H32.0525V35.4425C32.0525 32.5138 31.9587 30.065 31.8612 27.9575H38.195L38.5288 31.2162H38.675C39.635 29.6862 41.9862 27.4287 45.92 27.4287C50.7162 27.4287 54.3125 30.6425 54.3125 37.55V51.4212Z" fill="#FFBE41"/>
</svg>
