<svg width="65" height="65" viewBox="0 0 73 73" fill="none" xmlns="http://www.w3.org/2000/svg">
<path d="M36.5 0.5C16.6175 0.5 0.5 16.6175 0.5 36.5C0.5 56.3825 16.6175 72.5 36.5 72.5C56.3825 72.5 72.5 56.3825 72.5 36.5C72.5 16.6175 56.3825 0.5 36.5 0.5ZM38.9637 45.0313C36.6537 44.855 35.6862 43.7113 33.8787 42.6163C32.885 47.8325 31.67 52.835 28.07 55.4488C26.9562 47.5588 29.6975 41.6413 30.9725 35.3525C28.8012 31.6963 31.2312 24.3425 35.8137 26.15C41.45 28.385 30.9312 39.7438 37.9925 41.165C45.365 42.6425 48.3762 28.37 43.805 23.735C37.1975 17.0338 24.5787 23.5813 26.1312 33.1738C26.5062 35.5175 28.9325 36.23 27.0987 39.4663C22.8725 38.5288 21.6087 35.195 21.7737 30.7513C22.0325 23.4763 28.31 18.38 34.6025 17.6788C42.5637 16.7938 50.0337 20.6 51.0687 28.0925C52.2275 36.545 47.4725 45.6913 38.9637 45.0313Z" fill="#FFBE41"/>
</svg>
