<svg width="95" height="94" viewBox="0 0 95 94" fill="none" xmlns="http://www.w3.org/2000/svg">
<path d="M69.375 22H69.3926Z" fill="#EFA923"/>
<path d="M91.1618 15.7501H73.3767L75.1189 8.78521L82.6032 6.23638C84.195 5.69537 85.1423 4.00396 84.6833 2.38677C84.5665 1.97996 84.3683 1.60111 84.1007 1.2732C83.8331 0.945294 83.5017 0.675162 83.1266 0.479192C82.7514 0.283221 82.3404 0.165497 81.9184 0.133159C81.4964 0.100821 81.0722 0.154544 80.6716 0.291068L71.4919 3.41607C70.9976 3.58464 70.5533 3.87444 70.1999 4.25896C69.8464 4.64348 69.5949 5.11047 69.4685 5.61724L66.9353 15.7501H41.3376C39.656 15.7501 38.2126 17.043 38.1286 18.7247C38.1083 19.1472 38.1739 19.5695 38.3216 19.9659C38.4692 20.3623 38.6958 20.7246 38.9876 21.0308C39.2795 21.3371 39.6304 21.5809 40.0193 21.7475C40.4081 21.9141 40.8267 22 41.2497 22.0001H41.7868L41.9821 23.6915C42.0281 24.0865 42.2177 24.4508 42.5148 24.7151C42.8119 24.9794 43.1958 25.1253 43.5935 25.1251C51.2107 25.1251 57.9802 27.254 63.1482 31.2813C66.0226 33.4961 68.3528 36.3387 69.9607 39.5919C70.8607 41.4217 71.5248 43.3584 71.9372 45.3555C72.0193 45.7447 72.2498 46.0866 72.5798 46.3086C75.2367 48.1114 77.1967 50.7692 78.134 53.8401C79.0713 56.9111 78.9295 60.2103 77.7321 63.1895C77.5929 63.5343 77.5825 63.9177 77.7028 64.2696C78.3948 66.2524 78.7486 68.3374 78.7497 70.4376C78.7497 74.8008 77.2653 78.959 74.57 82.1465C73.0419 83.9658 71.1196 85.4132 68.9489 86.379C68.5734 86.5444 68.278 86.851 68.1267 87.2325C67.3155 89.3456 66.17 91.3147 64.7341 93.0645C64.6743 93.1355 64.636 93.2221 64.6237 93.314C64.6113 93.406 64.6255 93.4996 64.6644 93.5839C64.7034 93.6681 64.7655 93.7395 64.8436 93.7897C64.9216 93.8399 65.0124 93.8668 65.1052 93.8672H74.7165C77.0697 93.8576 79.3341 92.9674 81.0638 91.3718C82.7934 89.7762 83.8631 87.5909 84.0622 85.2461L90.7419 22.0001H91.2497C91.6731 22.0005 92.0921 21.915 92.4814 21.7486C92.8707 21.5823 93.2221 21.3385 93.5143 21.0322C93.8066 20.7259 94.0335 20.3635 94.1814 19.9668C94.3293 19.5701 94.3951 19.1475 94.3747 18.7247C94.2927 17.043 92.8435 15.7501 91.1618 15.7501Z" fill="#EFA923"/>
<path d="M18.7285 59.5C19.3449 59.4971 19.9557 59.6164 20.5256 59.8511C21.0955 60.0858 21.6132 60.4311 22.0488 60.8672L25.0781 63.8965C25.1507 63.9691 25.2368 64.0267 25.3317 64.0661C25.4265 64.1054 25.5282 64.1256 25.6309 64.1256C25.7335 64.1256 25.8352 64.1054 25.93 64.0661C26.0249 64.0267 26.111 63.9691 26.1836 63.8965L29.207 60.8672C29.6426 60.4311 30.1604 60.0858 30.7303 59.8511C31.3002 59.6164 31.911 59.4971 32.5273 59.5H70.9219C71.1271 59.5021 71.3307 59.4637 71.521 59.3871C71.7114 59.3104 71.8848 59.1971 72.0313 59.0534C72.1779 58.9098 72.2947 58.7387 72.3751 58.5499C72.4555 58.3611 72.498 58.1583 72.5 57.9531V57.9375C72.4978 56.1372 71.875 54.3926 70.7365 52.998C69.598 51.6033 68.0135 50.6438 66.25 50.2812C66.0898 44.4824 63.7109 39.6289 59.3145 36.2188C55.248 33.0469 49.8145 31.375 43.5938 31.375H29.5312C16.207 31.375 7.18164 38.9473 6.875 50.2812C5.11155 50.6438 3.52703 51.6033 2.38853 52.998C1.25004 54.3926 0.6272 56.1372 0.625 57.9375C0.625 58.3519 0.78962 58.7493 1.08265 59.0424C1.37567 59.3354 1.7731 59.5 2.1875 59.5H18.7285Z" fill="#EFA923"/>
<path d="M33.8164 65.75C33.6112 65.7499 33.4079 65.7901 33.2182 65.8686C33.0285 65.947 32.8562 66.062 32.7109 66.2071L28.3867 70.5332C27.6542 71.2655 26.6608 71.6769 25.625 71.6769C24.5892 71.6769 23.5958 71.2655 22.8633 70.5332L18.5391 66.2071C18.3938 66.062 18.2215 65.947 18.0318 65.8686C17.8421 65.7901 17.6388 65.7499 17.4336 65.75H3.87891C3.14484 65.7468 2.43325 66.0032 1.86996 66.4739C1.30667 66.9446 0.92796 67.5993 0.800783 68.3223C0.683447 69.0213 0.624649 69.7288 0.625002 70.4375C0.625002 76.4121 4.75195 81.2793 9.85547 81.375C10.3301 84.3282 11.4785 86.9961 13.207 89.084C15.7637 92.1719 19.4805 93.875 23.6719 93.875H49.4531C53.6445 93.875 57.3613 92.1719 59.918 89.0801C61.6465 86.9922 62.7949 84.3243 63.2695 81.3711C68.373 81.2793 72.5 76.4121 72.5 70.4336C72.5004 69.7249 72.4416 69.0174 72.3242 68.3184C72.1962 67.5961 71.8172 66.9423 71.2539 66.4724C70.6907 66.0024 69.9796 65.7466 69.2461 65.75H33.8164Z" fill="#EFA923"/>
</svg>
