<svg width="101" height="100" viewBox="0 0 101 100" fill="none" xmlns="http://www.w3.org/2000/svg">
<path d="M97.375 82.8333H3.625C2.9708 82.8333 2.37482 82.5258 1.82773 81.7963C1.28037 81.0665 1 80.1978 1 79.1667C1 62.9267 4.7729 49.1161 12.2944 37.7102C19.8064 26.3186 29.4322 19.4892 41.176 17.1662C42.192 17.1496 43.0437 16.6345 43.7223 15.7297C44.4119 14.8102 44.75 13.7258 44.75 12.5C44.75 11.2742 44.4119 10.1898 43.7223 9.27031C43.0324 8.35046 42.1635 7.83333 41.125 7.83333C40.4708 7.83333 39.8748 7.5258 39.3277 6.79635C38.7804 6.06653 38.5 5.19779 38.5 4.16667C38.5 3.13555 38.7804 2.2668 39.3277 1.53698C39.8748 0.80753 40.4708 0.5 41.125 0.5H59.875C60.5292 0.5 61.1252 0.80753 61.6723 1.53698C62.2196 2.2668 62.5 3.13555 62.5 4.16667C62.5 5.19779 62.2196 6.06653 61.6723 6.79635C61.1252 7.5258 60.5292 7.83333 59.875 7.83333C58.8365 7.83333 57.9676 8.35046 57.2777 9.27031C56.5881 10.1898 56.25 11.2742 56.25 12.5C56.25 13.7258 56.5881 14.8102 57.2777 15.7297C57.9563 16.6345 58.808 17.1496 59.824 17.1662C71.5678 19.4892 81.1936 26.3186 88.7056 37.7102C96.2271 49.1161 100 62.9267 100 79.1667C100 80.1978 99.7196 81.0665 99.1723 81.7963C98.6252 82.5258 98.0292 82.8333 97.375 82.8333ZM3.625 92.1667H97.375C98.0292 92.1667 98.6252 92.4742 99.1723 93.2036C99.7196 93.9335 100 94.8022 100 95.8333C100 96.8644 99.7196 97.7332 99.1723 98.463C98.6252 99.1925 98.0292 99.5 97.375 99.5H3.625C2.97081 99.5 2.37482 99.1925 1.82773 98.463C1.28037 97.7332 1 96.8644 1 95.8333C1 94.8022 1.28037 93.9335 1.82773 93.2036C2.37482 92.4742 2.9708 92.1667 3.625 92.1667Z" fill="#EFA923" stroke="black"/>
</svg>
