<svg width="70" height="70" viewBox="0 0 100 100" fill="none" xmlns="http://www.w3.org/2000/svg">
<path d="M30.6122 87.4526L30.4053 87.3387L30.1859 87.4262L0.895213 99.1048L12.5738 69.8141L12.6613 69.5947L12.5474 69.3878C8.68166 62.365 6.75 54.8633 6.75 46.875C6.75 40.5614 7.97366 34.5577 10.4204 28.8594C12.8707 23.1527 16.1724 18.2261 20.3243 14.0743C24.4761 9.92241 29.4027 6.6207 35.1094 4.17038C40.8077 1.72366 46.8114 0.5 53.125 0.5C59.4386 0.5 65.4423 1.72366 71.1406 4.17038C76.8473 6.6207 81.7739 9.92241 85.9257 14.0743C90.0776 18.2261 93.3793 23.1527 95.8296 28.8594C98.2763 34.5577 99.5 40.5614 99.5 46.875C99.5 53.1886 98.2763 59.1923 95.8296 64.8906C93.3793 70.5973 90.0776 75.5239 85.9257 79.6757C81.7739 83.8276 76.8473 87.1293 71.1406 89.5796C65.4423 92.0263 59.4386 93.25 53.125 93.25C45.1367 93.25 37.635 91.3183 30.6122 87.4526ZM62.5 55.75H62.3099L62.1678 55.8763L58.8569 58.8194C56.1037 57.9967 52.6704 55.5766 48.5469 51.4531C44.4234 47.3296 42.0033 43.8963 41.1806 41.1431L44.1237 37.8322L44.25 37.6901V37.5V31.25C44.25 30.0187 43.8139 28.8133 42.9866 27.6413C42.1715 26.4866 41.252 25.6268 40.2199 25.093C39.7192 24.834 39.2473 24.667 38.8182 24.6356C38.3731 24.603 37.9543 24.7174 37.6347 25.0371L33.0449 29.6269C30.3044 32.3674 29.9885 36.5663 31.801 42.0038C33.6215 47.4652 37.0892 52.7377 42.1757 57.8243C47.2623 62.9108 52.5348 66.3785 57.9962 68.199C63.4337 70.0115 67.6326 69.6956 70.3731 66.9551L74.9629 62.3653C75.2826 62.0457 75.397 61.6269 75.3644 61.1818C75.333 60.7527 75.166 60.2808 74.907 59.7801C74.3732 58.748 73.5134 57.8285 72.3587 57.0134C71.1867 56.1861 69.9813 55.75 68.75 55.75H62.5Z" fill="#FFBE41" stroke="#C2AEA1"/>
</svg>
