<svg width="77" height="77" viewBox="0 0 77 77" fill="none" xmlns="http://www.w3.org/2000/svg">
<path d="M24.875 23.3355V38.5355L0.875 19.5355L24.875 0.535484V15.7355H44.875C53.3619 15.7355 61.5013 18.9383 67.5024 24.6394C73.5036 30.3405 76.875 38.0729 76.875 46.1355C76.875 54.1981 73.5036 61.9304 67.5024 67.6315C61.5013 73.3326 53.3619 76.5355 44.875 76.5355H8.875V68.9355H44.875C51.2402 68.9355 57.3447 66.5333 61.8456 62.2575C66.3464 57.9817 68.875 52.1824 68.875 46.1355C68.875 40.0885 66.3464 34.2893 61.8456 30.0135C57.3447 25.7376 51.2402 23.3355 44.875 23.3355H24.875Z" fill="#CA9020"/>
</svg>
