<svg width="922" height="66" viewBox="0 0 922 66" fill="none" xmlns="http://www.w3.org/2000/svg">
<path d="M14.58 26.8957C14.58 27.9557 14.33 28.9557 13.83 29.8957C13.33 30.8357 12.53 31.6057 11.43 32.2057C10.33 32.7857 8.92 33.0757 7.2 33.0757H3.42V41.5357H0V20.6857H7.2C8.8 20.6857 10.15 20.9657 11.25 21.5257C12.37 22.0657 13.2 22.8057 13.74 23.7457C14.3 24.6857 14.58 25.7357 14.58 26.8957ZM7.2 30.2857C8.5 30.2857 9.47 29.9957 10.11 29.4157C10.75 28.8157 11.07 27.9757 11.07 26.8957C11.07 24.6157 9.78 23.4757 7.2 23.4757H3.42V30.2857H7.2Z" fill="black"/>
<path d="M21.2618 20.6857V41.5357H17.8418V20.6857H21.2618Z" fill="black"/>
<path d="M29.052 38.5657H38.742V41.5357H25.002V38.8657L34.662 23.6557H25.002V20.6857H38.742V23.3557L29.052 38.5657Z" fill="black"/>
<path d="M45.7805 38.5657H55.4705V41.5357H41.7305V38.8657L51.3905 23.6557H41.7305V20.6857H55.4705V23.3557L45.7805 38.5657Z" fill="black"/>
<path d="M71.779 37.2757H63.049L61.549 41.5357H57.979L65.449 20.6557H69.409L76.879 41.5357H73.279L71.779 37.2757ZM70.819 34.4857L67.429 24.7957L64.009 34.4857H70.819Z" fill="black"/>
<path d="M103.01 26.6857C102.47 25.6457 101.72 24.8657 100.76 24.3457C99.7999 23.8057 98.6899 23.5357 97.4299 23.5357C96.0499 23.5357 94.8199 23.8457 93.7399 24.4657C92.6599 25.0857 91.8099 25.9657 91.1899 27.1057C90.5899 28.2457 90.2899 29.5657 90.2899 31.0657C90.2899 32.5657 90.5899 33.8957 91.1899 35.0557C91.8099 36.1957 92.6599 37.0757 93.7399 37.6957C94.8199 38.3157 96.0499 38.6257 97.4299 38.6257C99.2899 38.6257 100.8 38.1057 101.96 37.0657C103.12 36.0257 103.83 34.6157 104.09 32.8357H96.2599V30.1057H107.75V32.7757C107.53 34.3957 106.95 35.8857 106.01 37.2457C105.09 38.6057 103.88 39.6957 102.38 40.5157C100.9 41.3157 99.2499 41.7157 97.4299 41.7157C95.4699 41.7157 93.6799 41.2657 92.0599 40.3657C90.4399 39.4457 89.1499 38.1757 88.1899 36.5557C87.2499 34.9357 86.7799 33.1057 86.7799 31.0657C86.7799 29.0257 87.2499 27.1957 88.1899 25.5757C89.1499 23.9557 90.4399 22.6957 92.0599 21.7957C93.6999 20.8757 95.4899 20.4157 97.4299 20.4157C99.6499 20.4157 101.62 20.9657 103.34 22.0657C105.08 23.1457 106.34 24.6857 107.12 26.6857H103.01Z" fill="black"/>
<path d="M114.513 20.6857V33.9757C114.513 35.5557 114.923 36.7457 115.743 37.5457C116.583 38.3457 117.743 38.7457 119.223 38.7457C120.723 38.7457 121.883 38.3457 122.703 37.5457C123.543 36.7457 123.963 35.5557 123.963 33.9757V20.6857H127.383V33.9157C127.383 35.6157 127.013 37.0557 126.273 38.2357C125.533 39.4157 124.543 40.2957 123.303 40.8757C122.063 41.4557 120.693 41.7457 119.193 41.7457C117.693 41.7457 116.323 41.4557 115.083 40.8757C113.863 40.2957 112.893 39.4157 112.173 38.2357C111.453 37.0557 111.093 35.6157 111.093 33.9157V20.6857H114.513Z" fill="black"/>
<path d="M138.706 41.7457C137.306 41.7457 136.046 41.5057 134.926 41.0257C133.806 40.5257 132.926 39.8257 132.286 38.9257C131.646 38.0257 131.326 36.9757 131.326 35.7757H134.986C135.066 36.6757 135.416 37.4157 136.036 37.9957C136.676 38.5757 137.566 38.8657 138.706 38.8657C139.886 38.8657 140.806 38.5857 141.466 38.0257C142.126 37.4457 142.456 36.7057 142.456 35.8057C142.456 35.1057 142.246 34.5357 141.826 34.0957C141.426 33.6557 140.916 33.3157 140.296 33.0757C139.696 32.8357 138.856 32.5757 137.776 32.2957C136.416 31.9357 135.306 31.5757 134.446 31.2157C133.606 30.8357 132.886 30.2557 132.286 29.4757C131.686 28.6957 131.386 27.6557 131.386 26.3557C131.386 25.1557 131.686 24.1057 132.286 23.2057C132.886 22.3057 133.726 21.6157 134.806 21.1357C135.886 20.6557 137.136 20.4157 138.556 20.4157C140.576 20.4157 142.226 20.9257 143.506 21.9457C144.806 22.9457 145.526 24.3257 145.666 26.0857H141.886C141.826 25.3257 141.466 24.6757 140.806 24.1357C140.146 23.5957 139.276 23.3257 138.196 23.3257C137.216 23.3257 136.416 23.5757 135.796 24.0757C135.176 24.5757 134.866 25.2957 134.866 26.2357C134.866 26.8757 135.056 27.4057 135.436 27.8257C135.836 28.2257 136.336 28.5457 136.936 28.7857C137.536 29.0257 138.356 29.2857 139.396 29.5657C140.776 29.9457 141.896 30.3257 142.756 30.7057C143.636 31.0857 144.376 31.6757 144.976 32.4757C145.596 33.2557 145.906 34.3057 145.906 35.6257C145.906 36.6857 145.616 37.6857 145.036 38.6257C144.476 39.5657 143.646 40.3257 142.546 40.9057C141.466 41.4657 140.186 41.7457 138.706 41.7457Z" fill="black"/>
<path d="M163.411 20.6857V23.4757H157.861V41.5357H154.441V23.4757H148.861V20.6857H163.411Z" fill="black"/>
<path d="M176.385 41.7457C174.445 41.7457 172.655 41.2957 171.015 40.3957C169.395 39.4757 168.105 38.2057 167.145 36.5857C166.205 34.9457 165.735 33.1057 165.735 31.0657C165.735 29.0257 166.205 27.1957 167.145 25.5757C168.105 23.9557 169.395 22.6957 171.015 21.7957C172.655 20.8757 174.445 20.4157 176.385 20.4157C178.345 20.4157 180.135 20.8757 181.755 21.7957C183.395 22.6957 184.685 23.9557 185.625 25.5757C186.565 27.1957 187.035 29.0257 187.035 31.0657C187.035 33.1057 186.565 34.9457 185.625 36.5857C184.685 38.2057 183.395 39.4757 181.755 40.3957C180.135 41.2957 178.345 41.7457 176.385 41.7457ZM176.385 38.7757C177.765 38.7757 178.995 38.4657 180.075 37.8457C181.155 37.2057 181.995 36.3057 182.595 35.1457C183.215 33.9657 183.525 32.6057 183.525 31.0657C183.525 29.5257 183.215 28.1757 182.595 27.0157C181.995 25.8557 181.155 24.9657 180.075 24.3457C178.995 23.7257 177.765 23.4157 176.385 23.4157C175.005 23.4157 173.775 23.7257 172.695 24.3457C171.615 24.9657 170.765 25.8557 170.145 27.0157C169.545 28.1757 169.245 29.5257 169.245 31.0657C169.245 32.6057 169.545 33.9657 170.145 35.1457C170.765 36.3057 171.615 37.2057 172.695 37.8457C173.775 38.4657 175.005 38.7757 176.385 38.7757Z" fill="black"/>
<path d="M210.306 44.9257H206.886V17.5057H210.306V44.9257Z" fill="black"/>
<path d="M240.809 41.7457C238.869 41.7457 237.079 41.2957 235.439 40.3957C233.819 39.4757 232.529 38.2057 231.569 36.5857C230.629 34.9457 230.159 33.1057 230.159 31.0657C230.159 29.0257 230.629 27.1957 231.569 25.5757C232.529 23.9557 233.819 22.6957 235.439 21.7957C237.079 20.8757 238.869 20.4157 240.809 20.4157C242.769 20.4157 244.559 20.8757 246.179 21.7957C247.819 22.6957 249.109 23.9557 250.049 25.5757C250.989 27.1957 251.459 29.0257 251.459 31.0657C251.459 33.1057 250.989 34.9457 250.049 36.5857C249.109 38.2057 247.819 39.4757 246.179 40.3957C244.559 41.2957 242.769 41.7457 240.809 41.7457ZM240.809 38.7757C242.189 38.7757 243.419 38.4657 244.499 37.8457C245.579 37.2057 246.419 36.3057 247.019 35.1457C247.639 33.9657 247.949 32.6057 247.949 31.0657C247.949 29.5257 247.639 28.1757 247.019 27.0157C246.419 25.8557 245.579 24.9657 244.499 24.3457C243.419 23.7257 242.189 23.4157 240.809 23.4157C239.429 23.4157 238.199 23.7257 237.119 24.3457C236.039 24.9657 235.189 25.8557 234.569 27.0157C233.969 28.1757 233.669 29.5257 233.669 31.0657C233.669 32.6057 233.969 33.9657 234.569 35.1457C235.189 36.3057 236.039 37.2057 237.119 37.8457C238.199 38.4657 239.429 38.7757 240.809 38.7757Z" fill="black"/>
<path d="M263.164 24.7357C264.464 24.7357 265.624 25.0057 266.644 25.5457C267.684 26.0857 268.494 26.8857 269.074 27.9457C269.654 29.0057 269.944 30.2857 269.944 31.7857V41.5357H266.554V32.2957C266.554 30.8157 266.184 29.6857 265.444 28.9057C264.704 28.1057 263.694 27.7057 262.414 27.7057C261.134 27.7057 260.114 28.1057 259.354 28.9057C258.614 29.6857 258.244 30.8157 258.244 32.2957V41.5357H254.824V25.0057H258.244V26.8957C258.804 26.2157 259.514 25.6857 260.374 25.3057C261.254 24.9257 262.184 24.7357 263.164 24.7357Z" fill="black"/>
<path d="M289.457 32.8657C289.457 33.4857 289.417 34.0457 289.337 34.5457H276.707C276.807 35.8657 277.297 36.9257 278.177 37.7257C279.057 38.5257 280.137 38.9257 281.417 38.9257C283.257 38.9257 284.557 38.1557 285.317 36.6157H289.007C288.507 38.1357 287.597 39.3857 286.277 40.3657C284.977 41.3257 283.357 41.8057 281.417 41.8057C279.837 41.8057 278.417 41.4557 277.157 40.7557C275.917 40.0357 274.937 39.0357 274.217 37.7557C273.517 36.4557 273.167 34.9557 273.167 33.2557C273.167 31.5557 273.507 30.0657 274.187 28.7857C274.887 27.4857 275.857 26.4857 277.097 25.7857C278.357 25.0857 279.797 24.7357 281.417 24.7357C282.977 24.7357 284.367 25.0757 285.587 25.7557C286.807 26.4357 287.757 27.3957 288.437 28.6357C289.117 29.8557 289.457 31.2657 289.457 32.8657ZM285.887 31.7857C285.867 30.5257 285.417 29.5157 284.537 28.7557C283.657 27.9957 282.567 27.6157 281.267 27.6157C280.087 27.6157 279.077 27.9957 278.237 28.7557C277.397 29.4957 276.897 30.5057 276.737 31.7857H285.887Z" fill="black"/>
<path d="M316.725 41.5357L314.145 38.9557C313.145 39.9557 312.055 40.7057 310.875 41.2057C309.695 41.6857 308.375 41.9257 306.915 41.9257C305.435 41.9257 304.125 41.6657 302.985 41.1457C301.845 40.6257 300.965 39.8857 300.345 38.9257C299.725 37.9457 299.415 36.8157 299.415 35.5357C299.415 34.0957 299.825 32.8157 300.645 31.6957C301.465 30.5557 302.685 29.6557 304.305 28.9957C303.725 28.2957 303.315 27.6457 303.075 27.0457C302.835 26.4257 302.715 25.7457 302.715 25.0057C302.715 24.0857 302.945 23.2657 303.405 22.5457C303.885 21.8257 304.565 21.2557 305.445 20.8357C306.325 20.4157 307.345 20.2057 308.505 20.2057C309.685 20.2057 310.685 20.4357 311.505 20.8957C312.345 21.3357 312.965 21.9457 313.365 22.7257C313.785 23.5057 313.955 24.3757 313.875 25.3357H310.455C310.475 24.5957 310.295 24.0257 309.915 23.6257C309.535 23.2057 309.015 22.9957 308.355 22.9957C307.695 22.9957 307.155 23.1957 306.735 23.5957C306.335 23.9757 306.135 24.4457 306.135 25.0057C306.135 25.5457 306.285 26.0857 306.585 26.6257C306.905 27.1457 307.455 27.8257 308.235 28.6657L313.755 34.1557L315.885 30.6457H319.575L316.875 35.2657L316.125 36.4957L321.195 41.5357H316.725ZM306.915 39.0157C308.795 39.0157 310.455 38.2457 311.895 36.7057L306.375 31.1557C304.015 32.0957 302.835 33.5157 302.835 35.4157C302.835 36.4357 303.215 37.2957 303.975 37.9957C304.735 38.6757 305.715 39.0157 306.915 39.0157Z" fill="black"/>
<path d="M338.4 41.8057C336.84 41.8057 335.43 41.4557 334.17 40.7557C332.91 40.0357 331.92 39.0357 331.2 37.7557C330.48 36.4557 330.12 34.9557 330.12 33.2557C330.12 31.5757 330.49 30.0857 331.23 28.7857C331.97 27.4857 332.98 26.4857 334.26 25.7857C335.54 25.0857 336.97 24.7357 338.55 24.7357C340.13 24.7357 341.56 25.0857 342.84 25.7857C344.12 26.4857 345.13 27.4857 345.87 28.7857C346.61 30.0857 346.98 31.5757 346.98 33.2557C346.98 34.9357 346.6 36.4257 345.84 37.7257C345.08 39.0257 344.04 40.0357 342.72 40.7557C341.42 41.4557 339.98 41.8057 338.4 41.8057ZM338.4 38.8357C339.28 38.8357 340.1 38.6257 340.86 38.2057C341.64 37.7857 342.27 37.1557 342.75 36.3157C343.23 35.4757 343.47 34.4557 343.47 33.2557C343.47 32.0557 343.24 31.0457 342.78 30.2257C342.32 29.3857 341.71 28.7557 340.95 28.3357C340.19 27.9157 339.37 27.7057 338.49 27.7057C337.61 27.7057 336.79 27.9157 336.03 28.3357C335.29 28.7557 334.7 29.3857 334.26 30.2257C333.82 31.0457 333.6 32.0557 333.6 33.2557C333.6 35.0357 334.05 36.4157 334.95 37.3957C335.87 38.3557 337.02 38.8357 338.4 38.8357Z" fill="black"/>
<path d="M358.701 24.7357C360.001 24.7357 361.161 25.0057 362.181 25.5457C363.221 26.0857 364.031 26.8857 364.611 27.9457C365.191 29.0057 365.481 30.2857 365.481 31.7857V41.5357H362.091V32.2957C362.091 30.8157 361.721 29.6857 360.981 28.9057C360.241 28.1057 359.231 27.7057 357.951 27.7057C356.671 27.7057 355.651 28.1057 354.891 28.9057C354.151 29.6857 353.781 30.8157 353.781 32.2957V41.5357H350.361V25.0057H353.781V26.8957C354.341 26.2157 355.051 25.6857 355.911 25.3057C356.791 24.9257 357.721 24.7357 358.701 24.7357Z" fill="black"/>
<path d="M373.264 19.3357V41.5357H369.844V19.3357H373.264Z" fill="black"/>
<path d="M392.634 25.0057L382.494 49.3057H378.954L382.314 41.2657L375.804 25.0057H379.614L384.264 37.6057L389.094 25.0057H392.634Z" fill="black"/>
<path d="M417.588 26.8957C417.588 27.9557 417.338 28.9557 416.838 29.8957C416.338 30.8357 415.538 31.6057 414.438 32.2057C413.338 32.7857 411.928 33.0757 410.208 33.0757H406.428V41.5357H403.008V20.6857H410.208C411.808 20.6857 413.158 20.9657 414.258 21.5257C415.378 22.0657 416.208 22.8057 416.748 23.7457C417.308 24.6857 417.588 25.7357 417.588 26.8957ZM410.208 30.2857C411.508 30.2857 412.478 29.9957 413.118 29.4157C413.758 28.8157 414.078 27.9757 414.078 26.8957C414.078 24.6157 412.788 23.4757 410.208 23.4757H406.428V30.2857H410.208Z" fill="black"/>
<path d="M435.94 26.6857C435.4 25.6457 434.65 24.8657 433.69 24.3457C432.73 23.8057 431.62 23.5357 430.36 23.5357C428.98 23.5357 427.75 23.8457 426.67 24.4657C425.59 25.0857 424.74 25.9657 424.12 27.1057C423.52 28.2457 423.22 29.5657 423.22 31.0657C423.22 32.5657 423.52 33.8957 424.12 35.0557C424.74 36.1957 425.59 37.0757 426.67 37.6957C427.75 38.3157 428.98 38.6257 430.36 38.6257C432.22 38.6257 433.73 38.1057 434.89 37.0657C436.05 36.0257 436.76 34.6157 437.02 32.8357H429.19V30.1057H440.68V32.7757C440.46 34.3957 439.88 35.8857 438.94 37.2457C438.02 38.6057 436.81 39.6957 435.31 40.5157C433.83 41.3157 432.18 41.7157 430.36 41.7157C428.4 41.7157 426.61 41.2657 424.99 40.3657C423.37 39.4457 422.08 38.1757 421.12 36.5557C420.18 34.9357 419.71 33.1057 419.71 31.0657C419.71 29.0257 420.18 27.1957 421.12 25.5757C422.08 23.9557 423.37 22.6957 424.99 21.7957C426.63 20.8757 428.42 20.4157 430.36 20.4157C432.58 20.4157 434.55 20.9657 436.27 22.0657C438.01 23.1457 439.27 24.6857 440.05 26.6857H435.94Z" fill="black"/>
<path d="M570.18 36.8857C572.1 35.2257 573.61 33.8657 574.71 32.8057C575.83 31.7257 576.76 30.6057 577.5 29.4457C578.24 28.2857 578.61 27.1257 578.61 25.9657C578.61 24.7657 578.32 23.8257 577.74 23.1457C577.18 22.4657 576.29 22.1257 575.07 22.1257C573.89 22.1257 572.97 22.5057 572.31 23.2657C571.67 24.0057 571.33 25.0057 571.29 26.2657H567.99C568.05 23.9857 568.73 22.2457 570.03 21.0457C571.35 19.8257 573.02 19.2157 575.04 19.2157C577.22 19.2157 578.92 19.8157 580.14 21.0157C581.38 22.2157 582 23.8157 582 25.8157C582 27.2557 581.63 28.6457 580.89 29.9857C580.17 31.3057 579.3 32.4957 578.28 33.5557C577.28 34.5957 576 35.8057 574.44 37.1857L573.09 38.3857H582.6V41.2357H568.02V38.7457L570.18 36.8857Z" fill="black"/>
<path d="M585.605 30.3157C585.605 26.8557 586.185 24.1557 587.345 22.2157C588.525 20.2557 590.545 19.2757 593.405 19.2757C596.265 19.2757 598.275 20.2557 599.435 22.2157C600.615 24.1557 601.205 26.8557 601.205 30.3157C601.205 33.8157 600.615 36.5557 599.435 38.5357C598.275 40.4957 596.265 41.4757 593.405 41.4757C590.545 41.4757 588.525 40.4957 587.345 38.5357C586.185 36.5557 585.605 33.8157 585.605 30.3157ZM597.845 30.3157C597.845 28.6957 597.735 27.3257 597.515 26.2057C597.315 25.0857 596.895 24.1757 596.255 23.4757C595.615 22.7557 594.665 22.3957 593.405 22.3957C592.145 22.3957 591.195 22.7557 590.555 23.4757C589.915 24.1757 589.485 25.0857 589.265 26.2057C589.065 27.3257 588.965 28.6957 588.965 30.3157C588.965 31.9957 589.065 33.4057 589.265 34.5457C589.465 35.6857 589.885 36.6057 590.525 37.3057C591.185 38.0057 592.145 38.3557 593.405 38.3557C594.665 38.3557 595.615 38.0057 596.255 37.3057C596.915 36.6057 597.345 35.6857 597.545 34.5457C597.745 33.4057 597.845 31.9957 597.845 30.3157Z" fill="black"/>
<path d="M606.713 36.8857C608.633 35.2257 610.143 33.8657 611.243 32.8057C612.363 31.7257 613.293 30.6057 614.033 29.4457C614.773 28.2857 615.143 27.1257 615.143 25.9657C615.143 24.7657 614.853 23.8257 614.273 23.1457C613.713 22.4657 612.823 22.1257 611.603 22.1257C610.423 22.1257 609.503 22.5057 608.843 23.2657C608.203 24.0057 607.863 25.0057 607.823 26.2657H604.523C604.583 23.9857 605.263 22.2457 606.563 21.0457C607.883 19.8257 609.553 19.2157 611.573 19.2157C613.753 19.2157 615.453 19.8157 616.673 21.0157C617.913 22.2157 618.533 23.8157 618.533 25.8157C618.533 27.2557 618.163 28.6457 617.423 29.9857C616.703 31.3057 615.833 32.4957 614.813 33.5557C613.813 34.5957 612.533 35.8057 610.973 37.1857L609.623 38.3857H619.133V41.2357H604.553V38.7457L606.713 36.8857Z" fill="black"/>
<path d="M621.688 22.7857V19.6657H627.928V41.5357H624.478V22.7857H621.688Z" fill="black"/>
<path d="M644.619 37.4257L640.989 45.7057H638.769L640.899 37.4257H644.619Z" fill="black"/>
<path d="M667.97 37.2757H659.24L657.74 41.5357H654.17L661.64 20.6557H665.6L673.07 41.5357H669.47L667.97 37.2757ZM667.01 34.4857L663.62 24.7957L660.2 34.4857H667.01Z" fill="black"/>
<path d="M679.738 19.3357V41.5357H676.318V19.3357H679.738Z" fill="black"/>
<path d="M687.648 19.3357V41.5357H684.229V19.3357H687.648Z" fill="black"/>
<path d="M703.352 27.4057C703.852 26.5657 704.512 25.9157 705.332 25.4557C706.172 24.9757 707.162 24.7357 708.302 24.7357V28.2757H707.432C706.092 28.2757 705.072 28.6157 704.372 29.2957C703.692 29.9757 703.352 31.1557 703.352 32.8357V41.5357H699.932V25.0057H703.352V27.4057Z" fill="black"/>
<path d="M713.185 22.8157C712.565 22.8157 712.045 22.6057 711.625 22.1857C711.205 21.7657 710.995 21.2457 710.995 20.6257C710.995 20.0057 711.205 19.4857 711.625 19.0657C712.045 18.6457 712.565 18.4357 713.185 18.4357C713.785 18.4357 714.295 18.6457 714.715 19.0657C715.135 19.4857 715.345 20.0057 715.345 20.6257C715.345 21.2457 715.135 21.7657 714.715 22.1857C714.295 22.6057 713.785 22.8157 713.185 22.8157ZM714.865 25.0057V41.5357H711.445V25.0057H714.865Z" fill="black"/>
<path d="M726.015 24.7357C727.295 24.7357 728.425 24.9957 729.405 25.5157C730.405 26.0157 731.185 26.6457 731.745 27.4057V25.0057H735.195V41.8057C735.195 43.3257 734.875 44.6757 734.235 45.8557C733.595 47.0557 732.665 47.9957 731.445 48.6757C730.245 49.3557 728.805 49.6957 727.125 49.6957C724.885 49.6957 723.025 49.1657 721.545 48.1057C720.065 47.0657 719.225 45.6457 719.025 43.8457H722.415C722.675 44.7057 723.225 45.3957 724.065 45.9157C724.925 46.4557 725.945 46.7257 727.125 46.7257C728.505 46.7257 729.615 46.3057 730.455 45.4657C731.315 44.6257 731.745 43.4057 731.745 41.8057V39.0457C731.165 39.8257 730.375 40.4857 729.375 41.0257C728.396 41.5457 727.275 41.8057 726.015 41.8057C724.575 41.8057 723.255 41.4457 722.055 40.7257C720.875 39.9857 719.935 38.9657 719.235 37.6657C718.555 36.3457 718.215 34.8557 718.215 33.1957C718.215 31.5357 718.555 30.0657 719.235 28.7857C719.935 27.5057 720.875 26.5157 722.055 25.8157C723.255 25.0957 724.575 24.7357 726.015 24.7357ZM731.745 33.2557C731.745 32.1157 731.505 31.1257 731.025 30.2857C730.565 29.4457 729.956 28.8057 729.195 28.3657C728.435 27.9257 727.615 27.7057 726.735 27.7057C725.855 27.7057 725.035 27.9257 724.275 28.3657C723.515 28.7857 722.895 29.4157 722.415 30.2557C721.955 31.0757 721.725 32.0557 721.725 33.1957C721.725 34.3357 721.955 35.3357 722.415 36.1957C722.895 37.0557 723.515 37.7157 724.275 38.1757C725.055 38.6157 725.875 38.8357 726.735 38.8357C727.615 38.8357 728.435 38.6157 729.195 38.1757C729.956 37.7357 730.565 37.0957 731.025 36.2557C731.505 35.3957 731.745 34.3957 731.745 33.2557Z" fill="black"/>
<path d="M748.237 24.7357C749.497 24.7357 750.617 25.0057 751.597 25.5457C752.597 26.0857 753.378 26.8857 753.938 27.9457C754.518 29.0057 754.807 30.2857 754.807 31.7857V41.5357H751.417V32.2957C751.417 30.8157 751.047 29.6857 750.307 28.9057C749.568 28.1057 748.558 27.7057 747.278 27.7057C745.997 27.7057 744.978 28.1057 744.218 28.9057C743.478 29.6857 743.107 30.8157 743.107 32.2957V41.5357H739.688V19.3357H743.107V26.9257C743.688 26.2257 744.417 25.6857 745.297 25.3057C746.198 24.9257 747.177 24.7357 748.237 24.7357Z" fill="black"/>
<path d="M763.16 27.7957V36.9457C763.16 37.5657 763.3 38.0157 763.58 38.2957C763.88 38.5557 764.38 38.6857 765.08 38.6857H767.18V41.5357H764.48C762.94 41.5357 761.76 41.1757 760.94 40.4557C760.12 39.7357 759.71 38.5657 759.71 36.9457V27.7957H757.76V25.0057H759.71V20.8957H763.16V25.0057H767.18V27.7957H763.16Z" fill="black"/>
<path d="M776.332 41.8057C775.032 41.8057 773.862 41.5757 772.822 41.1157C771.802 40.6357 770.992 39.9957 770.392 39.1957C769.792 38.3757 769.472 37.4657 769.432 36.4657H772.972C773.032 37.1657 773.362 37.7557 773.962 38.2357C774.582 38.6957 775.352 38.9257 776.272 38.9257C777.232 38.9257 777.972 38.7457 778.492 38.3857C779.032 38.0057 779.302 37.5257 779.302 36.9457C779.302 36.3257 779.002 35.8657 778.402 35.5657C777.822 35.2657 776.892 34.9357 775.612 34.5757C774.372 34.2357 773.362 33.9057 772.582 33.5857C771.802 33.2657 771.122 32.7757 770.542 32.1157C769.982 31.4557 769.702 30.5857 769.702 29.5057C769.702 28.6257 769.962 27.8257 770.482 27.1057C771.002 26.3657 771.742 25.7857 772.702 25.3657C773.682 24.9457 774.802 24.7357 776.062 24.7357C777.942 24.7357 779.452 25.2157 780.592 26.1757C781.752 27.1157 782.372 28.4057 782.452 30.0457H779.032C778.972 29.3057 778.672 28.7157 778.132 28.2757C777.592 27.8357 776.862 27.6157 775.942 27.6157C775.042 27.6157 774.352 27.7857 773.872 28.1257C773.392 28.4657 773.152 28.9157 773.152 29.4757C773.152 29.9157 773.312 30.2857 773.632 30.5857C773.952 30.8857 774.342 31.1257 774.802 31.3057C775.262 31.4657 775.942 31.6757 776.842 31.9357C778.042 32.2557 779.022 32.5857 779.782 32.9257C780.562 33.2457 781.232 33.7257 781.792 34.3657C782.352 35.0057 782.642 35.8557 782.662 36.9157C782.662 37.8557 782.402 38.6957 781.882 39.4357C781.362 40.1757 780.622 40.7557 779.662 41.1757C778.722 41.5957 777.612 41.8057 776.332 41.8057Z" fill="black"/>
<path d="M797.57 27.4057C798.07 26.5657 798.73 25.9157 799.55 25.4557C800.39 24.9757 801.38 24.7357 802.52 24.7357V28.2757H801.65C800.31 28.2757 799.29 28.6157 798.59 29.2957C797.91 29.9757 797.57 31.1557 797.57 32.8357V41.5357H794.15V25.0057H797.57V27.4057Z" fill="black"/>
<path d="M820.814 32.8657C820.814 33.4857 820.774 34.0457 820.694 34.5457H808.064C808.164 35.8657 808.654 36.9257 809.534 37.7257C810.414 38.5257 811.494 38.9257 812.774 38.9257C814.614 38.9257 815.914 38.1557 816.674 36.6157H820.364C819.864 38.1357 818.954 39.3857 817.634 40.3657C816.334 41.3257 814.714 41.8057 812.774 41.8057C811.194 41.8057 809.774 41.4557 808.514 40.7557C807.274 40.0357 806.294 39.0357 805.574 37.7557C804.874 36.4557 804.524 34.9557 804.524 33.2557C804.524 31.5557 804.864 30.0657 805.544 28.7857C806.244 27.4857 807.214 26.4857 808.454 25.7857C809.714 25.0857 811.154 24.7357 812.774 24.7357C814.334 24.7357 815.724 25.0757 816.944 25.7557C818.164 26.4357 819.114 27.3957 819.794 28.6357C820.474 29.8557 820.814 31.2657 820.814 32.8657ZM817.244 31.7857C817.224 30.5257 816.774 29.5157 815.894 28.7557C815.014 27.9957 813.924 27.6157 812.624 27.6157C811.444 27.6157 810.434 27.9957 809.594 28.7557C808.754 29.4957 808.254 30.5057 808.094 31.7857H817.244Z" fill="black"/>
<path d="M830.18 41.8057C828.88 41.8057 827.71 41.5757 826.67 41.1157C825.65 40.6357 824.84 39.9957 824.24 39.1957C823.64 38.3757 823.32 37.4657 823.28 36.4657H826.82C826.88 37.1657 827.21 37.7557 827.81 38.2357C828.43 38.6957 829.2 38.9257 830.12 38.9257C831.08 38.9257 831.82 38.7457 832.34 38.3857C832.88 38.0057 833.15 37.5257 833.15 36.9457C833.15 36.3257 832.85 35.8657 832.25 35.5657C831.67 35.2657 830.74 34.9357 829.46 34.5757C828.22 34.2357 827.21 33.9057 826.43 33.5857C825.65 33.2657 824.97 32.7757 824.39 32.1157C823.83 31.4557 823.55 30.5857 823.55 29.5057C823.55 28.6257 823.81 27.8257 824.33 27.1057C824.85 26.3657 825.59 25.7857 826.55 25.3657C827.53 24.9457 828.65 24.7357 829.91 24.7357C831.79 24.7357 833.3 25.2157 834.44 26.1757C835.6 27.1157 836.22 28.4057 836.3 30.0457H832.88C832.82 29.3057 832.52 28.7157 831.98 28.2757C831.44 27.8357 830.71 27.6157 829.79 27.6157C828.89 27.6157 828.2 27.7857 827.72 28.1257C827.24 28.4657 827 28.9157 827 29.4757C827 29.9157 827.16 30.2857 827.48 30.5857C827.8 30.8857 828.19 31.1257 828.65 31.3057C829.11 31.4657 829.79 31.6757 830.69 31.9357C831.89 32.2557 832.87 32.5857 833.63 32.9257C834.41 33.2457 835.08 33.7257 835.64 34.3657C836.2 35.0057 836.49 35.8557 836.51 36.9157C836.51 37.8557 836.25 38.6957 835.73 39.4357C835.21 40.1757 834.47 40.7557 833.51 41.1757C832.57 41.5957 831.46 41.8057 830.18 41.8057Z" fill="black"/>
<path d="M855.355 32.8657C855.355 33.4857 855.315 34.0457 855.235 34.5457H842.605C842.705 35.8657 843.195 36.9257 844.075 37.7257C844.955 38.5257 846.035 38.9257 847.315 38.9257C849.155 38.9257 850.455 38.1557 851.215 36.6157H854.905C854.405 38.1357 853.495 39.3857 852.175 40.3657C850.875 41.3257 849.255 41.8057 847.315 41.8057C845.735 41.8057 844.315 41.4557 843.055 40.7557C841.815 40.0357 840.835 39.0357 840.115 37.7557C839.415 36.4557 839.065 34.9557 839.065 33.2557C839.065 31.5557 839.405 30.0657 840.085 28.7857C840.785 27.4857 841.755 26.4857 842.995 25.7857C844.255 25.0857 845.695 24.7357 847.315 24.7357C848.875 24.7357 850.265 25.0757 851.485 25.7557C852.705 26.4357 853.655 27.3957 854.335 28.6357C855.015 29.8557 855.355 31.2657 855.355 32.8657ZM851.785 31.7857C851.765 30.5257 851.315 29.5157 850.435 28.7557C849.555 27.9957 848.465 27.6157 847.165 27.6157C845.985 27.6157 844.975 27.9957 844.135 28.7557C843.295 29.4957 842.795 30.5057 842.635 31.7857H851.785Z" fill="black"/>
<path d="M862.141 27.4057C862.641 26.5657 863.301 25.9157 864.121 25.4557C864.961 24.9757 865.951 24.7357 867.091 24.7357V28.2757H866.221C864.881 28.2757 863.861 28.6157 863.161 29.2957C862.481 29.9757 862.141 31.1557 862.141 32.8357V41.5357H858.721V25.0057H862.141V27.4057Z" fill="black"/>
<path d="M876.624 38.4757L881.304 25.0057H884.934L878.634 41.5357H874.554L868.284 25.0057H871.944L876.624 38.4757Z" fill="black"/>
<path d="M902.67 32.8657C902.67 33.4857 902.63 34.0457 902.55 34.5457H889.92C890.02 35.8657 890.51 36.9257 891.39 37.7257C892.27 38.5257 893.349 38.9257 894.63 38.9257C896.47 38.9257 897.77 38.1557 898.53 36.6157H902.22C901.72 38.1357 900.81 39.3857 899.49 40.3657C898.19 41.3257 896.57 41.8057 894.63 41.8057C893.049 41.8057 891.63 41.4557 890.37 40.7557C889.13 40.0357 888.149 39.0357 887.43 37.7557C886.729 36.4557 886.38 34.9557 886.38 33.2557C886.38 31.5557 886.72 30.0657 887.4 28.7857C888.1 27.4857 889.07 26.4857 890.31 25.7857C891.57 25.0857 893.01 24.7357 894.63 24.7357C896.19 24.7357 897.58 25.0757 898.8 25.7557C900.02 26.4357 900.97 27.3957 901.65 28.6357C902.33 29.8557 902.67 31.2657 902.67 32.8657ZM899.1 31.7857C899.08 30.5257 898.63 29.5157 897.75 28.7557C896.87 27.9957 895.78 27.6157 894.48 27.6157C893.3 27.6157 892.29 27.9957 891.45 28.7557C890.609 29.4957 890.109 30.5057 889.95 31.7857H899.1Z" fill="black"/>
<path d="M904.895 33.1957C904.895 31.5357 905.235 30.0657 905.915 28.7857C906.615 27.5057 907.555 26.5157 908.735 25.8157C909.935 25.0957 911.265 24.7357 912.725 24.7357C913.805 24.7357 914.865 24.9757 915.905 25.4557C916.965 25.9157 917.805 26.5357 918.425 27.3157V19.3357H921.875V41.5357H918.425V39.0457C917.865 39.8457 917.085 40.5057 916.085 41.0257C915.105 41.5457 913.975 41.8057 912.695 41.8057C911.255 41.8057 909.935 41.4457 908.735 40.7257C907.555 39.9857 906.615 38.9657 905.915 37.6657C905.235 36.3457 904.895 34.8557 904.895 33.1957ZM918.425 33.2557C918.425 32.1157 918.185 31.1257 917.705 30.2857C917.245 29.4457 916.635 28.8057 915.875 28.3657C915.115 27.9257 914.295 27.7057 913.415 27.7057C912.535 27.7057 911.715 27.9257 910.955 28.3657C910.195 28.7857 909.575 29.4157 909.095 30.2557C908.635 31.0757 908.405 32.0557 908.405 33.1957C908.405 34.3357 908.635 35.3357 909.095 36.1957C909.575 37.0557 910.195 37.7157 910.955 38.1757C911.735 38.6157 912.555 38.8357 913.415 38.8357C914.295 38.8357 915.115 38.6157 915.875 38.1757C916.635 37.7357 917.245 37.0957 917.705 36.2557C918.185 35.3957 918.425 34.3957 918.425 33.2557Z" fill="black"/>
<path d="M506.5 0.535484C488.58 0.535484 474 15.1155 474 33.0355C474 50.9555 488.58 65.5355 506.5 65.5355C524.42 65.5355 539 50.9555 539 33.0355C539 15.1155 524.42 0.535484 506.5 0.535484ZM506.5 5.53548C521.715 5.53548 534 17.8205 534 33.0355C534 48.2505 521.715 60.5355 506.5 60.5355C491.285 60.5355 479 48.2505 479 33.0355C479 17.8205 491.285 5.53548 506.5 5.53548ZM506.265 18.0355C497.955 18.0355 491.265 24.7255 491.265 33.0355C491.265 41.3455 497.955 48.0355 506.265 48.0355C512.263 48.0355 517.39 44.4405 519.78 39.363L515.25 37.2555C513.638 40.6805 510.27 43.0355 506.265 43.0355C500.572 43.0355 496.265 38.728 496.265 33.0355C496.265 27.343 500.572 23.0355 506.265 23.0355C510.27 23.0355 513.64 25.388 515.25 28.818L519.783 26.708C517.388 21.6305 512.263 18.0355 506.263 18.0355H506.265Z" fill="#CA9020"/>
</svg>
