<svg width="65" height="65" viewBox="0 0 73 73" fill="none" xmlns="http://www.w3.org/2000/svg">
<path d="M36.5 0.5C16.6196 0.5 0.5 16.6196 0.5 36.5C0.5 56.3804 16.6196 72.5 36.5 72.5C56.3804 72.5 72.5 56.3804 72.5 36.5C72.5 16.6196 56.3804 0.5 36.5 0.5ZM39.433 45.4036C35.9054 50.3696 28.8179 51.8161 23.2893 49.6866C17.7446 47.5732 13.8071 41.7152 14.2812 35.7446C14.4018 28.4402 21.1277 22.0357 28.4321 22.2848C31.9357 22.1241 35.2304 23.6429 37.9143 25.7884C36.7652 27.0902 35.5839 28.3438 34.3143 29.5089C31.092 27.283 26.5036 26.6482 23.2812 29.2196C18.6687 32.4098 18.4598 39.9393 22.8955 43.3705C27.2107 47.2839 35.367 45.3393 36.5643 39.3446C33.8643 39.3045 31.1482 39.3446 28.4482 39.2562C28.4402 37.6411 28.4321 36.0339 28.4402 34.4188C32.9562 34.4027 37.4804 34.3946 42.0045 34.4348C42.2696 38.2357 41.7634 42.2696 39.433 45.4036ZM58.9196 38.4688C57.5696 38.4848 56.2196 38.4929 54.8696 38.5009C54.8536 39.8509 54.8455 41.2009 54.8455 42.5509H50.8036C50.7875 41.2009 50.7875 39.8589 50.7795 38.5089C49.4295 38.4929 48.0795 38.4848 46.7295 38.4688V34.4429C48.0795 34.4268 49.4295 34.4188 50.7795 34.4188C50.7875 33.0687 50.8036 31.7188 50.8116 30.3688H54.8455L54.8696 34.4188C56.2196 34.4348 57.5696 34.4348 58.9196 34.4429V38.4688Z" fill="#FFBE41"/>
</svg>
