<svg width="70" height="70" viewBox="0 0 100 100" fill="none" xmlns="http://www.w3.org/2000/svg">
<mask id="path-1-inside-1_826_92" fill="white">
<path fill-rule="evenodd" clip-rule="evenodd" d="M99.2875 23.0593C99.2875 -0.790659 60.9313 0.00309146 47.4938 0.00309146C34.0438 0.00309146 0 0.290592 0 24.1468H24.4312L24.4562 18.1656C24.4562 15.4281 27.45 11.7468 34.1625 11.7468H65.4938C72.0313 11.7468 75.1 15.4281 75.1 18.1656C75.1 19.1281 75.15 23.9593 75.15 24.1468H99.275L99.2875 23.0593Z"/>
<path fill-rule="evenodd" clip-rule="evenodd" d="M30.9313 57.8032C30.9132 58.8432 30.4831 59.8334 29.7354 60.5564C28.9878 61.2795 27.9837 61.6762 26.9438 61.6595H22.5875C22.072 61.6686 21.5598 61.5761 21.0801 61.3872C20.6004 61.1983 20.1627 60.9168 19.7918 60.5587C19.4209 60.2006 19.1242 59.7729 18.9187 59.3001C18.7131 58.8273 18.6027 58.3187 18.5938 57.8032V53.5782C18.5938 51.447 20.3812 49.722 22.5875 49.722H26.9438C29.1438 49.722 30.9313 51.447 30.9313 53.5782V57.8032Z"/>
<path fill-rule="evenodd" clip-rule="evenodd" d="M80.8563 57.847C80.8571 58.3714 80.7543 58.8908 80.5538 59.3754C80.3533 59.8599 80.0591 60.3001 79.688 60.6706C79.3169 61.0411 78.8762 61.3347 78.3913 61.5344C77.9065 61.7342 77.3869 61.8361 76.8625 61.8345H72.5125C71.9886 61.8353 71.4697 61.7327 70.9856 61.5326C70.5014 61.3325 70.0615 61.0388 69.6911 60.6684C69.3206 60.298 69.027 59.8581 68.8269 59.3739C68.6268 58.8897 68.5242 58.3709 68.525 57.847V53.4907C68.525 51.2845 70.3063 49.5032 72.5125 49.5032H76.8625C79.075 49.5032 80.8563 51.2845 80.8563 53.4907V57.847Z"/>
<path fill-rule="evenodd" clip-rule="evenodd" d="M55.925 57.872C55.9258 58.3959 55.8232 58.9147 55.6231 59.3989C55.423 59.8831 55.1293 60.323 54.7589 60.6934C54.3885 61.0638 53.9486 61.3575 53.4644 61.5576C52.9803 61.7577 52.4614 61.8603 51.9375 61.8595H47.575C47.0516 61.8595 46.5334 61.7563 46.05 61.5558C45.5666 61.3554 45.1274 61.0615 44.7576 60.6912C44.3878 60.3208 44.0947 59.8812 43.895 59.3975C43.6953 58.9137 43.5929 58.3953 43.5938 57.872V53.5157C43.5938 51.3095 45.375 49.5282 47.575 49.5282H51.9375C54.1437 49.5282 55.925 51.3095 55.925 53.5157V57.872Z"/>
<path fill-rule="evenodd" clip-rule="evenodd" d="M30.775 76.5407C30.7791 77.0602 30.6808 77.5755 30.4858 78.0571C30.2908 78.5387 30.0028 78.9771 29.6384 79.3474C29.2739 79.7177 28.84 80.0125 28.3616 80.2151C27.8832 80.4177 27.3695 80.5241 26.85 80.5282H22.5625C22.0424 80.5249 21.5281 80.4192 21.0489 80.2169C20.5698 80.0147 20.1352 79.7199 19.7701 79.3496C19.4049 78.9792 19.1164 78.5405 18.921 78.0585C18.7256 77.5765 18.6271 77.0608 18.6312 76.5407V72.1844C18.6312 69.9719 20.3875 68.1907 22.5625 68.1907H26.85C29.0187 68.1907 30.775 69.9719 30.775 72.1844V76.5407Z"/>
<path fill-rule="evenodd" clip-rule="evenodd" d="M80.6562 76.6032C80.662 77.1145 80.5667 77.6218 80.3758 78.0961C80.1849 78.5705 79.9022 79.0024 79.5438 79.3671C79.1855 79.7318 78.7586 80.0222 78.2878 80.2214C77.8169 80.4207 77.3113 80.5249 76.8 80.5282H72.575C72.0637 80.5249 71.5581 80.4207 71.0872 80.2214C70.6164 80.0222 70.1895 79.7318 69.8311 79.3671C69.4728 79.0024 69.1901 78.5705 68.9992 78.0961C68.8083 77.6218 68.713 77.1145 68.7187 76.6032V72.3157C68.7187 70.1344 70.4375 68.3844 72.575 68.3844H76.8C78.9375 68.3844 80.6562 70.1344 80.6562 72.3157V76.6032Z"/>
<path fill-rule="evenodd" clip-rule="evenodd" d="M55.9 76.6032C55.8976 77.1227 55.7925 77.6366 55.5909 78.1153C55.3892 78.5941 55.095 79.0283 54.725 79.393C54.3551 79.7578 53.9167 80.0458 53.4352 80.2406C52.9536 80.4354 52.4382 80.5331 51.9188 80.5282H47.5625C47.0427 80.5331 46.5271 80.4355 46.0452 80.2407C45.5632 80.046 45.1244 79.7581 44.754 79.3934C44.3836 79.0288 44.0887 78.5946 43.8864 78.1158C43.6841 77.637 43.5783 77.123 43.575 76.6032V72.3157C43.575 70.1344 45.3562 68.3844 47.5625 68.3844H51.9188C54.125 68.3844 55.9 70.1344 55.9 72.3157V76.6032Z"/>
<path fill-rule="evenodd" clip-rule="evenodd" d="M30.9688 95.3595C30.9606 95.8749 30.851 96.3837 30.6462 96.8568C30.4414 97.3299 30.1454 97.758 29.7751 98.1167C29.4048 98.4754 28.9675 98.7576 28.4881 98.9472C28.0087 99.1369 27.4967 99.2302 26.9813 99.2219H22.625C22.109 99.2311 21.5963 99.1383 21.1162 98.949C20.6361 98.7598 20.1981 98.4777 19.8271 98.1189C19.4562 97.7602 19.1596 97.3318 18.9544 96.8583C18.7492 96.3848 18.6394 95.8754 18.6313 95.3595V91.1344C18.6313 89.0032 20.4188 87.2782 22.625 87.2782H26.9813C29.1813 87.2782 30.9688 89.0032 30.9688 91.1344V95.3595Z"/>
<path fill-rule="evenodd" clip-rule="evenodd" d="M80.8563 95.4219C80.8571 95.9466 80.7544 96.4663 80.554 96.9513C80.3535 97.4362 80.0594 97.8768 79.6884 98.2478C79.3174 98.6188 78.8768 98.9129 78.3918 99.1134C77.9069 99.3138 77.3872 99.4165 76.8625 99.4157H72.5125C71.9881 99.4165 71.4687 99.3137 70.9841 99.1132C70.4996 98.9128 70.0594 98.6185 69.6889 98.2474C69.3183 97.8763 69.0248 97.4357 68.8251 96.9508C68.6253 96.4659 68.5234 95.9463 68.525 95.4219V91.0657C68.525 88.8594 70.3063 87.0782 72.5125 87.0782H76.8625C79.075 87.0782 80.8563 88.8594 80.8563 91.0657V95.4219Z"/>
<path fill-rule="evenodd" clip-rule="evenodd" d="M55.9 95.422C55.9066 95.9419 55.8103 96.4581 55.6166 96.9407C55.423 97.4234 55.1358 97.8629 54.7715 98.2341C54.4073 98.6053 53.9733 98.9008 53.4944 99.1036C53.0155 99.3064 52.5013 99.4124 51.9813 99.4157H47.6938C47.1737 99.4124 46.6595 99.3064 46.1806 99.1036C45.7017 98.9008 45.2677 98.6053 44.9035 98.2341C44.5393 97.8629 44.252 97.4234 44.0584 96.9407C43.8647 96.4581 43.7684 95.9419 43.775 95.422V91.0657C43.775 88.8594 45.5188 87.0782 47.6938 87.0782H51.9813C54.1563 87.0782 55.9 88.8594 55.9 91.0657V95.422Z"/>
<path fill-rule="evenodd" clip-rule="evenodd" d="M5.9625 36.772H18.7563C18.7563 36.772 23.175 38.197 24.3 30.6907H0.18125C1.225 37.647 5.9625 36.772 5.9625 36.772Z"/>
<path fill-rule="evenodd" clip-rule="evenodd" d="M75.4812 30.6907C76.7875 37.272 81.5 36.772 81.5 36.772H93.3187C93.3187 36.772 98.0562 36.8407 99.2125 30.6907H75.4812Z"/>
</mask>
<path fill-rule="evenodd" clip-rule="evenodd" d="M99.2875 23.0593C99.2875 -0.790659 60.9313 0.00309146 47.4938 0.00309146C34.0438 0.00309146 0 0.290592 0 24.1468H24.4312L24.4562 18.1656C24.4562 15.4281 27.45 11.7468 34.1625 11.7468H65.4938C72.0313 11.7468 75.1 15.4281 75.1 18.1656C75.1 19.1281 75.15 23.9593 75.15 24.1468H99.275L99.2875 23.0593Z" fill="#FFBE41"/>
<path fill-rule="evenodd" clip-rule="evenodd" d="M30.9313 57.8032C30.9132 58.8432 30.4831 59.8334 29.7354 60.5564C28.9878 61.2795 27.9837 61.6762 26.9438 61.6595H22.5875C22.072 61.6686 21.5598 61.5761 21.0801 61.3872C20.6004 61.1983 20.1627 60.9168 19.7918 60.5587C19.4209 60.2006 19.1242 59.7729 18.9187 59.3001C18.7131 58.8273 18.6027 58.3187 18.5938 57.8032V53.5782C18.5938 51.447 20.3812 49.722 22.5875 49.722H26.9438C29.1438 49.722 30.9313 51.447 30.9313 53.5782V57.8032Z" fill="#FFBE41"/>
<path fill-rule="evenodd" clip-rule="evenodd" d="M80.8563 57.847C80.8571 58.3714 80.7543 58.8908 80.5538 59.3754C80.3533 59.8599 80.0591 60.3001 79.688 60.6706C79.3169 61.0411 78.8762 61.3347 78.3913 61.5344C77.9065 61.7342 77.3869 61.8361 76.8625 61.8345H72.5125C71.9886 61.8353 71.4697 61.7327 70.9856 61.5326C70.5014 61.3325 70.0615 61.0388 69.6911 60.6684C69.3206 60.298 69.027 59.8581 68.8269 59.3739C68.6268 58.8897 68.5242 58.3709 68.525 57.847V53.4907C68.525 51.2845 70.3063 49.5032 72.5125 49.5032H76.8625C79.075 49.5032 80.8563 51.2845 80.8563 53.4907V57.847Z" fill="#FFBE41"/>
<path fill-rule="evenodd" clip-rule="evenodd" d="M55.925 57.872C55.9258 58.3959 55.8232 58.9147 55.6231 59.3989C55.423 59.8831 55.1293 60.323 54.7589 60.6934C54.3885 61.0638 53.9486 61.3575 53.4644 61.5576C52.9803 61.7577 52.4614 61.8603 51.9375 61.8595H47.575C47.0516 61.8595 46.5334 61.7563 46.05 61.5558C45.5666 61.3554 45.1274 61.0615 44.7576 60.6912C44.3878 60.3208 44.0947 59.8812 43.895 59.3975C43.6953 58.9137 43.5929 58.3953 43.5938 57.872V53.5157C43.5938 51.3095 45.375 49.5282 47.575 49.5282H51.9375C54.1437 49.5282 55.925 51.3095 55.925 53.5157V57.872Z" fill="#FFBE41"/>
<path fill-rule="evenodd" clip-rule="evenodd" d="M30.775 76.5407C30.7791 77.0602 30.6808 77.5755 30.4858 78.0571C30.2908 78.5387 30.0028 78.9771 29.6384 79.3474C29.2739 79.7177 28.84 80.0125 28.3616 80.2151C27.8832 80.4177 27.3695 80.5241 26.85 80.5282H22.5625C22.0424 80.5249 21.5281 80.4192 21.0489 80.2169C20.5698 80.0147 20.1352 79.7199 19.7701 79.3496C19.4049 78.9792 19.1164 78.5405 18.921 78.0585C18.7256 77.5765 18.6271 77.0608 18.6312 76.5407V72.1844C18.6312 69.9719 20.3875 68.1907 22.5625 68.1907H26.85C29.0187 68.1907 30.775 69.9719 30.775 72.1844V76.5407Z" fill="#FFBE41"/>
<path fill-rule="evenodd" clip-rule="evenodd" d="M80.6562 76.6032C80.662 77.1145 80.5667 77.6218 80.3758 78.0961C80.1849 78.5705 79.9022 79.0024 79.5438 79.3671C79.1855 79.7318 78.7586 80.0222 78.2878 80.2214C77.8169 80.4207 77.3113 80.5249 76.8 80.5282H72.575C72.0637 80.5249 71.5581 80.4207 71.0872 80.2214C70.6164 80.0222 70.1895 79.7318 69.8311 79.3671C69.4728 79.0024 69.1901 78.5705 68.9992 78.0961C68.8083 77.6218 68.713 77.1145 68.7187 76.6032V72.3157C68.7187 70.1344 70.4375 68.3844 72.575 68.3844H76.8C78.9375 68.3844 80.6562 70.1344 80.6562 72.3157V76.6032Z" fill="#FFBE41"/>
<path fill-rule="evenodd" clip-rule="evenodd" d="M55.9 76.6032C55.8976 77.1227 55.7925 77.6366 55.5909 78.1153C55.3892 78.5941 55.095 79.0283 54.725 79.393C54.3551 79.7578 53.9167 80.0458 53.4352 80.2406C52.9536 80.4354 52.4382 80.5331 51.9188 80.5282H47.5625C47.0427 80.5331 46.5271 80.4355 46.0452 80.2407C45.5632 80.046 45.1244 79.7581 44.754 79.3934C44.3836 79.0288 44.0887 78.5946 43.8864 78.1158C43.6841 77.637 43.5783 77.123 43.575 76.6032V72.3157C43.575 70.1344 45.3562 68.3844 47.5625 68.3844H51.9188C54.125 68.3844 55.9 70.1344 55.9 72.3157V76.6032Z" fill="#FFBE41"/>
<path fill-rule="evenodd" clip-rule="evenodd" d="M30.9688 95.3595C30.9606 95.8749 30.851 96.3837 30.6462 96.8568C30.4414 97.3299 30.1454 97.758 29.7751 98.1167C29.4048 98.4754 28.9675 98.7576 28.4881 98.9472C28.0087 99.1369 27.4967 99.2302 26.9813 99.2219H22.625C22.109 99.2311 21.5963 99.1383 21.1162 98.949C20.6361 98.7598 20.1981 98.4777 19.8271 98.1189C19.4562 97.7602 19.1596 97.3318 18.9544 96.8583C18.7492 96.3848 18.6394 95.8754 18.6313 95.3595V91.1344C18.6313 89.0032 20.4188 87.2782 22.625 87.2782H26.9813C29.1813 87.2782 30.9688 89.0032 30.9688 91.1344V95.3595Z" fill="#FFBE41"/>
<path fill-rule="evenodd" clip-rule="evenodd" d="M80.8563 95.4219C80.8571 95.9466 80.7544 96.4663 80.554 96.9513C80.3535 97.4362 80.0594 97.8768 79.6884 98.2478C79.3174 98.6188 78.8768 98.9129 78.3918 99.1134C77.9069 99.3138 77.3872 99.4165 76.8625 99.4157H72.5125C71.9881 99.4165 71.4687 99.3137 70.9841 99.1132C70.4996 98.9128 70.0594 98.6185 69.6889 98.2474C69.3183 97.8763 69.0248 97.4357 68.8251 96.9508C68.6253 96.4659 68.5234 95.9463 68.525 95.4219V91.0657C68.525 88.8594 70.3063 87.0782 72.5125 87.0782H76.8625C79.075 87.0782 80.8563 88.8594 80.8563 91.0657V95.4219Z" fill="#FFBE41"/>
<path fill-rule="evenodd" clip-rule="evenodd" d="M55.9 95.422C55.9066 95.9419 55.8103 96.4581 55.6166 96.9407C55.423 97.4234 55.1358 97.8629 54.7715 98.2341C54.4073 98.6053 53.9733 98.9008 53.4944 99.1036C53.0155 99.3064 52.5013 99.4124 51.9813 99.4157H47.6938C47.1737 99.4124 46.6595 99.3064 46.1806 99.1036C45.7017 98.9008 45.2677 98.6053 44.9035 98.2341C44.5393 97.8629 44.252 97.4234 44.0584 96.9407C43.8647 96.4581 43.7684 95.9419 43.775 95.422V91.0657C43.775 88.8594 45.5188 87.0782 47.6938 87.0782H51.9813C54.1563 87.0782 55.9 88.8594 55.9 91.0657V95.422Z" fill="#FFBE41"/>
<path fill-rule="evenodd" clip-rule="evenodd" d="M5.9625 36.772H18.7563C18.7563 36.772 23.175 38.197 24.3 30.6907H0.18125C1.225 37.647 5.9625 36.772 5.9625 36.772Z" fill="#FFBE41"/>
<path fill-rule="evenodd" clip-rule="evenodd" d="M75.4812 30.6907C76.7875 37.272 81.5 36.772 81.5 36.772H93.3187C93.3187 36.772 98.0562 36.8407 99.2125 30.6907H75.4812Z" fill="#FFBE41"/>
<path d="M99.2875 23.0593L100.287 23.0708V23.0593H99.2875ZM0 24.1468H-1V25.1468H0V24.1468ZM24.4312 24.1468V25.1468H25.4271L25.4312 24.151L24.4312 24.1468ZM24.4562 18.1656L25.4562 18.1698V18.1656H24.4562ZM75.15 24.1468H74.15V25.1468H75.15V24.1468ZM99.275 24.1468V25.1468H100.264L100.275 24.1583L99.275 24.1468ZM30.9313 57.8032L31.9311 57.8206L31.9313 57.8119V57.8032H30.9313ZM26.9438 61.6595L26.9598 60.6596L26.9518 60.6595H26.9438V61.6595ZM22.5875 61.6595V60.6595H22.5787L22.5698 60.6596L22.5875 61.6595ZM18.5938 57.8032H17.5938V57.8119L17.5939 57.8206L18.5938 57.8032ZM80.8563 57.847L79.8563 57.847L79.8563 57.8486L80.8563 57.847ZM76.8625 61.8345L76.8656 60.8345H76.8625V61.8345ZM72.5125 61.8345L72.5125 60.8345L72.5109 60.8345L72.5125 61.8345ZM68.525 57.847L69.525 57.8486V57.847H68.525ZM55.925 57.872L54.925 57.872L54.925 57.8735L55.925 57.872ZM51.9375 61.8595L51.9391 60.8595H51.9375V61.8595ZM47.575 61.8595L47.575 60.8595L47.575 60.8595L47.575 61.8595ZM43.5938 57.872L44.5938 57.8735V57.872H43.5938ZM30.775 76.5407L29.775 76.5407L29.775 76.5486L30.775 76.5407ZM26.85 80.5282L26.85 81.5282L26.8579 81.5282L26.85 80.5282ZM22.5625 80.5282L22.5562 81.5282H22.5625V80.5282ZM18.6312 76.5407L19.6312 76.5486V76.5407H18.6312ZM80.6562 76.6032L79.6562 76.6032L79.6563 76.6145L80.6562 76.6032ZM76.8 80.5282L76.8 81.5282L76.8064 81.5282L76.8 80.5282ZM72.575 80.5282L72.5686 81.5282H72.575V80.5282ZM68.7187 76.6032L69.7187 76.6145V76.6032H68.7187ZM55.9 76.6032L56.9 76.6079V76.6032H55.9ZM51.9188 80.5282L51.9283 79.5282H51.9188V80.5282ZM47.5625 80.5282L47.5625 79.5282L47.553 79.5282L47.5625 80.5282ZM43.575 76.6032H42.575L42.575 76.6095L43.575 76.6032ZM30.9688 95.3595L31.9686 95.3752L31.9688 95.3673V95.3595H30.9688ZM26.9813 99.2219L26.9973 98.2221L26.9893 98.2219H26.9813V99.2219ZM22.625 99.2219V98.2219H22.6162L22.6074 98.2221L22.625 99.2219ZM18.6313 95.3595H17.6313V95.3673L17.6314 95.3752L18.6313 95.3595ZM80.8563 95.4219L79.8563 95.4219L79.8563 95.4235L80.8563 95.4219ZM76.8625 99.4157L76.8641 98.4157H76.8625V99.4157ZM72.5125 99.4157L72.5125 98.4157L72.5109 98.4157L72.5125 99.4157ZM68.525 95.4219L69.525 95.4251V95.4219H68.525ZM55.9 95.422H54.8999L54.9001 95.4346L55.9 95.422ZM51.9813 99.4157L51.9813 100.416L51.9875 100.416L51.9813 99.4157ZM47.6938 99.4157L47.6875 100.416H47.6938V99.4157ZM43.775 95.422L44.775 95.4347V95.422H43.775ZM5.9625 36.772V35.772H5.87093L5.78087 35.7886L5.9625 36.772ZM18.7563 36.772L19.0632 35.8202L18.9135 35.772H18.7563V36.772ZM24.3 30.6907L25.289 30.8389L25.461 29.6907H24.3V30.6907ZM0.18125 30.6907V29.6907H-0.979989L-0.80768 30.8391L0.18125 30.6907ZM75.4812 30.6907V29.6907H74.2633L74.5004 30.8854L75.4812 30.6907ZM81.5 36.772V35.772H81.4471L81.3945 35.7776L81.5 36.772ZM93.3187 36.772L93.3333 35.7721L93.326 35.772H93.3187V36.772ZM99.2125 30.6907L100.195 30.8755L100.418 29.6907H99.2125V30.6907ZM100.287 23.0593C100.287 16.7855 97.7476 12.0933 93.7372 8.63753C89.7628 5.21287 84.3769 3.02608 78.6694 1.61663C67.2591 -1.20114 54.1792 -0.996909 47.4938 -0.996909V1.00309C54.2459 1.00309 67.0627 0.810443 78.1899 3.5583C83.7512 4.93166 88.7942 7.01832 92.4316 10.1526C96.0329 13.2559 98.2875 17.4082 98.2875 23.0593H100.287ZM47.4938 -0.996909C40.7826 -0.996909 28.7681 -0.930852 18.4161 2.17095C13.2342 3.7236 8.38661 6.05967 4.82448 9.60083C1.23552 13.1687 -1 17.9143 -1 24.1468H1C1 18.4513 3.01995 14.2149 6.23451 11.0192C9.47589 7.79691 13.9798 5.58805 18.9902 4.0868C29.0225 1.08079 40.755 1.00309 47.4938 1.00309V-0.996909ZM0 25.1468H24.4312V23.1468H0V25.1468ZM25.4312 24.151L25.4562 18.1698L23.4563 18.1614L23.4313 24.1427L25.4312 24.151ZM25.4562 18.1656C25.4562 16.1819 27.7765 12.7468 34.1625 12.7468V10.7468C27.1235 10.7468 23.4562 14.6743 23.4562 18.1656H25.4562ZM34.1625 12.7468H65.4938V10.7468H34.1625V12.7468ZM65.4938 12.7468C71.7027 12.7468 74.1 16.1803 74.1 18.1656H76.1C76.1 14.6759 72.3598 10.7468 65.4938 10.7468V12.7468ZM74.1 18.1656C74.1 18.6528 74.1126 20.1074 74.125 21.4561C74.1376 22.8144 74.15 24.0592 74.15 24.1468H76.15C76.15 24.0469 76.1374 22.7824 76.125 21.4376C76.1124 20.0831 76.1 18.6409 76.1 18.1656H74.1ZM75.15 25.1468H99.275V23.1468H75.15V25.1468ZM100.275 24.1583L100.287 23.0708L98.2876 23.0479L98.2751 24.1354L100.275 24.1583ZM29.9314 57.7858C29.9179 58.5608 29.5974 59.2988 29.0402 59.8376L30.4306 61.2753C31.3687 60.368 31.9084 59.1255 31.9311 57.8206L29.9314 57.7858ZM29.0402 59.8376C28.4831 60.3764 27.7348 60.6721 26.9598 60.6596L26.9277 62.6593C28.2326 62.6803 29.4925 62.1825 30.4306 61.2753L29.0402 59.8376ZM26.9438 60.6595H22.5875V62.6595H26.9438V60.6595ZM22.5698 60.6596C22.1857 60.6664 21.804 60.5975 21.4465 60.4567L20.7138 62.3176C21.3157 62.5546 21.9584 62.6707 22.6052 62.6593L22.5698 60.6596ZM21.4465 60.4567C21.089 60.3159 20.7628 60.1061 20.4864 59.8393L19.0972 61.278C19.5625 61.7274 20.1119 62.0806 20.7138 62.3176L21.4465 60.4567ZM20.4864 59.8393C20.21 59.5724 19.9889 59.2537 19.8357 58.9014L18.0016 59.6989C18.2595 60.2921 18.6318 60.8287 19.0972 61.278L20.4864 59.8393ZM19.8357 58.9014C19.6825 58.5491 19.6003 58.17 19.5936 57.7859L17.5939 57.8206C17.6051 58.4674 17.7437 59.1056 18.0016 59.6989L19.8357 58.9014ZM19.5938 57.8032V53.5782H17.5938V57.8032H19.5938ZM19.5938 53.5782C19.5938 52.0322 20.9001 50.722 22.5875 50.722V48.722C19.8624 48.722 17.5938 50.8618 17.5938 53.5782H19.5938ZM22.5875 50.722H26.9438V48.722H22.5875V50.722ZM26.9438 50.722C28.6239 50.722 29.9313 52.0312 29.9313 53.5782H31.9313C31.9313 50.8628 29.6636 48.722 26.9438 48.722V50.722ZM29.9313 53.5782V57.8032H31.9313V53.5782H29.9313ZM79.8563 57.8486C79.8569 58.2412 79.7799 58.6302 79.6298 58.993L81.4778 59.7577C81.7287 59.1514 81.8573 58.5015 81.8563 57.8454L79.8563 57.8486ZM79.6298 58.993C79.4796 59.3559 79.2593 59.6855 78.9814 59.963L80.3945 61.3783C80.8588 60.9147 81.227 60.3639 81.4778 59.7577L79.6298 58.993ZM78.9814 59.963C78.7035 60.2404 78.3736 60.4602 78.0105 60.6098L78.7722 62.4591C79.3789 62.2092 79.9302 61.8419 80.3945 61.3783L78.9814 59.963ZM78.0105 60.6098C77.6474 60.7594 77.2583 60.8357 76.8656 60.8345L76.8594 62.8345C77.5155 62.8365 78.1655 62.709 78.7722 62.4591L78.0105 60.6098ZM76.8625 60.8345H72.5125V62.8345H76.8625V60.8345ZM72.5109 60.8345C72.1186 60.8351 71.7301 60.7583 71.3675 60.6084L70.6036 62.4568C71.2094 62.7072 71.8586 62.8355 72.5141 62.8345L72.5109 60.8345ZM71.3675 60.6084C71.005 60.4586 70.6756 60.2387 70.3982 59.9613L68.984 61.3755C69.4474 61.839 69.9978 62.2064 70.6036 62.4568L71.3675 60.6084ZM70.3982 59.9613C70.1208 59.6839 69.9009 59.3545 69.751 58.9919L67.9027 59.7559C68.153 60.3616 68.5205 60.912 68.984 61.3755L70.3982 59.9613ZM69.751 58.9919C69.6012 58.6294 69.5244 58.2408 69.525 57.8486L67.525 57.8454C67.524 58.5009 67.6523 59.1501 67.9027 59.7559L69.751 58.9919ZM69.525 57.847V53.4907H67.525V57.847H69.525ZM69.525 53.4907C69.525 51.8368 70.8585 50.5032 72.5125 50.5032V48.5032C69.754 48.5032 67.525 50.7322 67.525 53.4907H69.525ZM72.5125 50.5032H76.8625V48.5032H72.5125V50.5032ZM76.8625 50.5032C78.5237 50.5032 79.8563 51.8378 79.8563 53.4907H81.8563C81.8563 50.7312 79.6263 48.5032 76.8625 48.5032V50.5032ZM79.8563 53.4907V57.847H81.8563V53.4907H79.8563ZM54.925 57.8735C54.9256 58.2658 54.8488 58.6544 54.6989 59.0169L56.5473 59.7809C56.7977 59.1751 56.926 58.5259 56.925 57.8704L54.925 57.8735ZM54.6989 59.0169C54.5491 59.3795 54.3292 59.7089 54.0518 59.9863L55.466 61.4005C55.9295 60.937 56.2969 60.3866 56.5473 59.7809L54.6989 59.0169ZM54.0518 59.9863C53.7744 60.2637 53.445 60.4836 53.0825 60.6334L53.8464 62.4818C54.4521 62.2314 55.0025 61.864 55.466 61.4005L54.0518 59.9863ZM53.0825 60.6334C52.7199 60.7833 52.3313 60.8601 51.9391 60.8595L51.9359 62.8595C52.5914 62.8605 53.2406 62.7322 53.8464 62.4818L53.0825 60.6334ZM51.9375 60.8595H47.575V62.8595H51.9375V60.8595ZM47.575 60.8595C47.1831 60.8595 46.7951 60.7822 46.433 60.6321L45.6669 62.4796C46.2718 62.7304 46.9202 62.8595 47.575 62.8595L47.575 60.8595ZM46.433 60.6321C46.071 60.482 45.7422 60.262 45.4653 59.9846L44.05 61.3977C44.5126 61.8611 45.0621 62.2287 45.6669 62.4796L46.433 60.6321ZM45.4653 59.9846C45.1884 59.7073 44.9689 59.3781 44.8193 59.0159L42.9707 59.7791C43.2206 60.3843 43.5873 60.9344 44.05 61.3977L45.4653 59.9846ZM44.8193 59.0159C44.6698 58.6536 44.5931 58.2654 44.5937 57.8735L42.5938 57.8704C42.5927 58.5252 42.7208 59.1738 42.9707 59.7791L44.8193 59.0159ZM44.5938 57.872V53.5157H42.5938V57.872H44.5938ZM44.5938 53.5157C44.5938 51.8607 45.9283 50.5282 47.575 50.5282V48.5282C44.8217 48.5282 42.5938 50.7582 42.5938 53.5157H44.5938ZM47.575 50.5282H51.9375V48.5282H47.575V50.5282ZM51.9375 50.5282C53.5914 50.5282 54.925 51.8618 54.925 53.5157H56.925C56.925 50.7572 54.696 48.5282 51.9375 48.5282V50.5282ZM54.925 53.5157V57.872H56.925V53.5157H54.925ZM29.775 76.5486C29.7781 76.9369 29.7047 77.3219 29.5589 77.6817L31.4127 78.4324C31.657 77.8292 31.7801 77.1836 31.775 76.5328L29.775 76.5486ZM29.5589 77.6817C29.4132 78.0416 29.198 78.3692 28.9257 78.6459L30.351 80.0489C30.8076 79.585 31.1684 79.0357 31.4127 78.4324L29.5589 77.6817ZM28.9257 78.6459C28.6533 78.9226 28.3292 79.1429 27.9717 79.2943L28.7516 81.136C29.3509 80.8821 29.8944 80.5127 30.351 80.0489L28.9257 78.6459ZM27.9717 79.2943C27.6142 79.4457 27.2303 79.5252 26.8421 79.5282L26.8579 81.5282C27.5087 81.523 28.1522 81.3898 28.7516 81.136L27.9717 79.2943ZM26.85 79.5282H22.5625V81.5282H26.85V79.5282ZM22.5688 79.5282C22.1801 79.5258 21.7958 79.4467 21.4378 79.2956L20.6601 81.1382C21.2603 81.3916 21.9047 81.5241 22.5562 81.5282L22.5688 79.5282ZM21.4378 79.2956C21.0798 79.1445 20.755 78.9243 20.4822 78.6475L19.058 80.0516C19.5154 80.5156 20.0598 80.8848 20.6601 81.1382L21.4378 79.2956ZM20.4822 78.6475C20.2093 78.3708 19.9937 78.0429 19.8477 77.6828L17.9943 78.4343C18.2391 79.0381 18.6005 79.5877 19.058 80.0516L20.4822 78.6475ZM19.8477 77.6828C19.7017 77.3226 19.6281 76.9372 19.6312 76.5486L17.6313 76.5328C17.6261 77.1843 17.7495 77.8305 17.9943 78.4343L19.8477 77.6828ZM19.6312 76.5407V72.1844H17.6312V76.5407H19.6312ZM19.6312 72.1844C19.6312 70.5098 20.9541 69.1907 22.5625 69.1907V67.1907C19.8209 67.1907 17.6312 69.4341 17.6312 72.1844H19.6312ZM22.5625 69.1907H26.85V67.1907H22.5625V69.1907ZM26.85 69.1907C28.4511 69.1907 29.775 70.5087 29.775 72.1844H31.775C31.775 69.4352 29.5864 67.1907 26.85 67.1907V69.1907ZM29.775 72.1844V76.5407H31.775V72.1844H29.775ZM79.6563 76.6145C79.6606 76.994 79.5898 77.3707 79.4481 77.7228L81.3035 78.4695C81.5436 77.873 81.6634 77.2349 81.6562 76.5919L79.6563 76.6145ZM79.4481 77.7228C79.3064 78.0749 79.0965 78.3955 78.8305 78.6663L80.2572 80.068C80.7078 79.6093 81.0634 79.066 81.3035 78.4695L79.4481 77.7228ZM78.8305 78.6663C78.5645 78.937 78.2476 79.1526 77.8981 79.3005L78.6775 81.1424C79.2697 80.8918 79.8065 80.5266 80.2572 80.068L78.8305 78.6663ZM77.8981 79.3005C77.5485 79.4484 77.1732 79.5258 76.7936 79.5282L76.8064 81.5282C77.4494 81.5241 78.0853 81.3929 78.6775 81.1424L77.8981 79.3005ZM76.8 79.5282H72.575V81.5282H76.8V79.5282ZM72.5814 79.5282C72.2018 79.5258 71.8265 79.4484 71.4769 79.3005L70.6975 81.1424C71.2897 81.3929 71.9256 81.5241 72.5686 81.5282L72.5814 79.5282ZM71.4769 79.3005C71.1274 79.1526 70.8105 78.937 70.5445 78.6663L69.1178 80.068C69.5685 80.5266 70.1053 80.8918 70.6975 81.1424L71.4769 79.3005ZM70.5445 78.6663C70.2785 78.3955 70.0686 78.0749 69.9269 77.7228L68.0715 78.4695C68.3116 79.066 68.6672 79.6093 69.1178 80.068L70.5445 78.6663ZM69.9269 77.7228C69.7851 77.3707 69.7144 76.994 69.7187 76.6145L67.7188 76.5919C67.7115 77.2349 67.8314 77.873 68.0715 78.4695L69.9269 77.7228ZM69.7187 76.6032V72.3157H67.7187V76.6032H69.7187ZM69.7187 72.3157C69.7187 70.6688 71.0075 69.3844 72.575 69.3844V67.3844C69.8675 67.3844 67.7187 69.6 67.7187 72.3157H69.7187ZM72.575 69.3844H76.8V67.3844H72.575V69.3844ZM76.8 69.3844C78.3675 69.3844 79.6562 70.6688 79.6562 72.3157H81.6562C81.6562 69.6 79.5075 67.3844 76.8 67.3844V69.3844ZM79.6562 72.3157V76.6032H81.6562V72.3157H79.6562ZM54.9 76.5985C54.8982 76.9862 54.8198 77.3698 54.6693 77.7272L56.5125 78.5035C56.7652 77.9033 56.8969 77.2591 56.9 76.6079L54.9 76.5985ZM54.6693 77.7272C54.5188 78.0846 54.2991 78.4087 54.023 78.6809L55.4271 80.1052C55.8908 79.648 56.2597 79.1037 56.5125 78.5035L54.6693 77.7272ZM54.023 78.6809C53.7468 78.9532 53.4196 79.1682 53.0602 79.3136L53.8101 81.1676C54.4138 80.9234 54.9634 80.5624 55.4271 80.1052L54.023 78.6809ZM53.0602 79.3136C52.7007 79.459 52.316 79.5319 51.9283 79.5282L51.9092 81.5282C52.5604 81.5344 53.2064 81.4118 53.8101 81.1676L53.0602 79.3136ZM51.9188 79.5282H47.5625V81.5282H51.9188V79.5282ZM47.553 79.5282C47.1648 79.5319 46.7797 79.459 46.4198 79.3135L45.6705 81.1679C46.2745 81.4119 46.9207 81.5343 47.572 81.5282L47.553 79.5282ZM46.4198 79.3135C46.0599 79.1681 45.7322 78.9531 45.4555 78.6807L44.0525 80.1061C44.5167 80.563 45.0666 80.9239 45.6705 81.1679L46.4198 79.3135ZM45.4555 78.6807C45.1788 78.4084 44.9587 78.0842 44.8076 77.7266L42.9653 78.505C43.2188 79.1051 43.5883 79.6491 44.0525 80.1061L45.4555 78.6807ZM44.8076 77.7266C44.6565 77.369 44.5774 76.9851 44.575 76.5969L42.575 76.6095C42.5791 77.2609 42.7117 77.905 42.9653 78.505L44.8076 77.7266ZM44.575 76.6032V72.3157H42.575V76.6032H44.575ZM44.575 72.3157C44.575 70.7011 45.8941 69.3844 47.5625 69.3844V67.3844C44.8184 67.3844 42.575 69.5678 42.575 72.3157H44.575ZM47.5625 69.3844H51.9188V67.3844H47.5625V69.3844ZM51.9188 69.3844C53.5851 69.3844 54.9 70.6991 54.9 72.3157H56.9C56.9 69.5698 54.6649 67.3844 51.9188 67.3844V69.3844ZM54.9 72.3157V76.6032H56.9V72.3157H54.9ZM29.9689 95.3437C29.9628 95.7278 29.8811 96.1069 29.7285 96.4595L31.5639 97.2541C31.8209 96.6605 31.9584 96.022 31.9686 95.3752L29.9689 95.3437ZM29.7285 96.4595C29.5759 96.8121 29.3553 97.1311 29.0793 97.3984L30.4709 98.835C30.9355 98.3849 31.3069 97.8477 31.5639 97.2541L29.7285 96.4595ZM29.0793 97.3984C28.8034 97.6657 28.4775 97.876 28.1202 98.0173L28.856 99.8771C29.4575 99.6391 30.0062 99.285 30.4709 98.835L29.0793 97.3984ZM28.1202 98.0173C27.763 98.1587 27.3814 98.2282 26.9973 98.2221L26.9652 100.222C27.612 100.232 28.2545 100.115 28.856 99.8771L28.1202 98.0173ZM26.9813 98.2219H22.625V100.222H26.9813V98.2219ZM22.6074 98.2221C22.2228 98.2289 21.8408 98.1598 21.483 98.0187L20.7495 99.8794C21.3519 100.117 21.9952 100.233 22.6426 100.222L22.6074 98.2221ZM21.483 98.0187C21.1252 97.8777 20.7988 97.6675 20.5223 97.4001L19.1319 98.8377C19.5974 99.2879 20.147 99.6419 20.7495 99.8794L21.483 98.0187ZM20.5223 97.4001C20.2459 97.1327 20.0249 96.8135 19.8719 96.4606L18.0369 97.2559C18.2943 97.8501 18.6665 98.3876 19.1319 98.8377L20.5223 97.4001ZM19.8719 96.4606C19.719 96.1078 19.6372 95.7282 19.6311 95.3437L17.6314 95.3752C17.6416 96.0227 17.7794 96.6618 18.0369 97.2559L19.8719 96.4606ZM19.6313 95.3595V91.1344H17.6313V95.3595H19.6313ZM19.6313 91.1344C19.6313 89.5884 20.9376 88.2782 22.625 88.2782V86.2782C19.8999 86.2782 17.6313 88.418 17.6313 91.1344H19.6313ZM22.625 88.2782H26.9813V86.2782H22.625V88.2782ZM26.9813 88.2782C28.6614 88.2782 29.9688 89.5874 29.9688 91.1344H31.9688C31.9688 88.419 29.7011 86.2782 26.9813 86.2782V88.2782ZM29.9688 91.1344V95.3595H31.9688V91.1344H29.9688ZM79.8563 95.4235C79.8569 95.8166 79.7799 96.206 79.6298 96.5693L81.4781 97.3332C81.7288 96.7267 81.8573 96.0767 81.8563 95.4204L79.8563 95.4235ZM79.6298 96.5693C79.4796 96.9326 79.2592 97.2627 78.9813 97.5407L80.3955 98.9549C80.8595 98.4908 81.2275 97.9397 81.4781 97.3332L79.6298 96.5693ZM78.9813 97.5407C78.7033 97.8186 78.3732 98.039 78.0099 98.1892L78.7738 100.038C79.3803 99.7869 79.9314 99.4189 80.3955 98.9549L78.9813 97.5407ZM78.0099 98.1892C77.6466 98.3393 77.2572 98.4163 76.8641 98.4157L76.861 100.416C77.5172 100.417 78.1673 100.288 78.7738 100.038L78.0099 98.1892ZM76.8625 98.4157H72.5125V100.416H76.8625V98.4157ZM72.5109 98.4157C72.1182 98.4163 71.7293 98.3393 71.3664 98.1892L70.6018 100.037C71.2081 100.288 71.858 100.417 72.5141 100.416L72.5109 98.4157ZM71.3664 98.1892C71.0036 98.0391 70.674 97.8187 70.3965 97.5409L68.9812 98.954C69.4448 99.4183 69.9955 99.7864 70.6018 100.037L71.3664 98.1892ZM70.3965 97.5409C70.1191 97.263 69.8993 96.933 69.7497 96.5699L67.9004 97.3317C68.1503 97.9383 68.5176 98.4896 68.9812 98.954L70.3965 97.5409ZM69.7497 96.5699C69.6001 96.2068 69.5238 95.8178 69.525 95.4251L67.525 95.4188C67.5229 96.0749 67.6505 96.725 67.9004 97.3317L69.7497 96.5699ZM69.525 95.4219V91.0657H67.525V95.4219H69.525ZM69.525 91.0657C69.525 89.4117 70.8585 88.0782 72.5125 88.0782V86.0782C69.754 86.0782 67.525 88.3072 67.525 91.0657H69.525ZM72.5125 88.0782H76.8625V86.0782H72.5125V88.0782ZM76.8625 88.0782C78.5238 88.0782 79.8563 89.4128 79.8563 91.0657H81.8563C81.8563 88.3061 79.6263 86.0782 76.8625 86.0782V88.0782ZM79.8563 91.0657V95.4219H81.8563V91.0657H79.8563ZM54.9001 95.4346C54.905 95.8228 54.8331 96.2081 54.6886 96.5683L56.5447 97.3132C56.7875 96.7082 56.9082 96.0611 56.8999 95.4093L54.9001 95.4346ZM54.6886 96.5683C54.544 96.9286 54.3296 97.2567 54.0578 97.5337L55.4853 98.9345C55.9419 98.4692 56.3019 97.9182 56.5447 97.3132L54.6886 96.5683ZM54.0578 97.5337C53.7859 97.8108 53.4619 98.0314 53.1045 98.1827L53.8844 100.024C54.4847 99.7702 55.0287 99.3998 55.4853 98.9345L54.0578 97.5337ZM53.1045 98.1827C52.747 98.3341 52.3632 98.4133 51.975 98.4157L51.9875 100.416C52.6394 100.412 53.2841 100.279 53.8844 100.024L53.1045 98.1827ZM51.9813 98.4157H47.6938V100.416H51.9813V98.4157ZM47.7 98.4157C47.3118 98.4133 46.928 98.3341 46.5705 98.1827L45.7907 100.024C46.391 100.279 47.0356 100.412 47.6875 100.416L47.7 98.4157ZM46.5705 98.1827C46.2131 98.0314 45.8891 97.8108 45.6172 97.5337L44.1897 98.9345C44.6463 99.3998 45.1904 99.7702 45.7907 100.024L46.5705 98.1827ZM45.6172 97.5337C45.3454 97.2567 45.131 96.9286 44.9864 96.5683L43.1303 97.3132C43.3731 97.9182 43.7331 98.4692 44.1897 98.9345L45.6172 97.5337ZM44.9864 96.5683C44.8419 96.2081 44.77 95.8228 44.7749 95.4346L42.7751 95.4093C42.7668 96.0611 42.8875 96.7082 43.1303 97.3132L44.9864 96.5683ZM44.775 95.422V91.0657H42.775V95.422H44.775ZM44.775 91.0657C44.775 89.3941 46.0885 88.0782 47.6938 88.0782V86.0782C44.949 86.0782 42.775 88.3248 42.775 91.0657H44.775ZM47.6938 88.0782H51.9813V86.0782H47.6938V88.0782ZM51.9813 88.0782C53.5865 88.0782 54.9 89.3941 54.9 91.0657H56.9C56.9 88.3248 54.726 86.0782 51.9813 86.0782V88.0782ZM54.9 91.0657V95.422H56.9V91.0657H54.9ZM5.9625 37.772H18.7563V35.772H5.9625V37.772ZM18.7563 36.772C18.4493 37.7237 18.4501 37.724 18.4509 37.7242C18.4512 37.7243 18.452 37.7246 18.4525 37.7247C18.4537 37.7251 18.4549 37.7255 18.4562 37.7259C18.4588 37.7267 18.4616 37.7276 18.4648 37.7286C18.4711 37.7305 18.4785 37.7328 18.487 37.7353C18.504 37.7403 18.5255 37.7463 18.5512 37.7531C18.6026 37.7666 18.671 37.7831 18.7545 37.7996C18.921 37.8325 19.1506 37.8662 19.4265 37.8766C19.9773 37.8974 20.7306 37.8256 21.5297 37.4521C23.1863 36.6779 24.6975 34.7854 25.289 30.8389L23.311 30.5425C22.7775 34.1023 21.5168 35.2505 20.6828 35.6403C20.2366 35.8488 19.8149 35.8899 19.502 35.8781C19.346 35.8722 19.2217 35.8532 19.1421 35.8375C19.1026 35.8297 19.075 35.8229 19.0611 35.8192C19.0541 35.8174 19.0507 35.8163 19.0509 35.8164C19.0511 35.8165 19.0521 35.8168 19.0541 35.8174C19.0552 35.8177 19.0564 35.8181 19.0579 35.8186C19.0587 35.8188 19.0595 35.8191 19.0604 35.8193C19.0608 35.8195 19.0615 35.8197 19.0617 35.8198C19.0624 35.82 19.0632 35.8202 18.7563 36.772ZM24.3 29.6907H0.18125V31.6907H24.3V29.6907ZM-0.80768 30.8391C-0.248261 34.5675 1.35106 36.4103 3.01969 37.2362C3.82425 37.6344 4.5869 37.7658 5.14815 37.7983C5.42967 37.8146 5.6647 37.8063 5.83523 37.7929C5.92069 37.7862 5.99054 37.7782 6.0426 37.7712C6.06864 37.7676 6.0903 37.7644 6.1073 37.7617C6.11579 37.7603 6.12313 37.7591 6.12928 37.758C6.13236 37.7575 6.13513 37.757 6.13761 37.7565C6.13884 37.7563 6.14001 37.7561 6.14109 37.7559C6.14164 37.7558 6.1424 37.7557 6.14267 37.7556C6.1434 37.7555 6.14412 37.7553 5.9625 36.772C5.78087 35.7886 5.78156 35.7885 5.78223 35.7884C5.78242 35.7883 5.78307 35.7882 5.78347 35.7881C5.78427 35.788 5.785 35.7879 5.78567 35.7877C5.78699 35.7875 5.78805 35.7873 5.78884 35.7872C5.79043 35.7869 5.79096 35.7868 5.79046 35.7869C5.78946 35.7871 5.78439 35.7879 5.77549 35.7891C5.75764 35.7915 5.72468 35.7954 5.67856 35.7991C5.58594 35.8063 5.44269 35.812 5.26376 35.8017C4.90412 35.7809 4.41716 35.6963 3.90687 35.4437C2.94582 34.968 1.65451 33.7703 1.17018 30.5423L-0.80768 30.8391ZM74.5004 30.8854C75.2052 34.4367 76.8766 36.2323 78.519 37.0865C79.3177 37.5019 80.0684 37.6729 80.6231 37.74C80.9011 37.7737 81.1328 37.7816 81.3012 37.7806C81.3855 37.7801 81.4544 37.7773 81.5057 37.7743C81.5313 37.7727 81.5526 37.7712 81.5694 37.7698C81.5777 37.7691 81.5849 37.7684 81.591 37.7679C81.594 37.7676 81.5967 37.7673 81.5991 37.7671C81.6003 37.7669 81.6015 37.7668 81.6025 37.7667C81.6031 37.7667 81.6038 37.7666 81.6041 37.7665C81.6048 37.7665 81.6055 37.7664 81.5 36.772C81.3945 35.7776 81.3952 35.7775 81.3958 35.7774C81.396 35.7774 81.3966 35.7773 81.397 35.7773C81.3978 35.7772 81.3985 35.7771 81.3992 35.7771C81.4004 35.777 81.4014 35.7769 81.4022 35.7768C81.4037 35.7766 81.4041 35.7766 81.4035 35.7767C81.4023 35.7768 81.397 35.7772 81.3879 35.7777C81.3695 35.7788 81.3358 35.7803 81.2887 35.7806C81.1943 35.7812 81.0477 35.7768 80.8634 35.7545C80.4937 35.7098 79.9846 35.5944 79.4419 35.3121C78.4016 34.7711 77.0635 33.526 76.4621 30.496L74.5004 30.8854ZM81.5 37.772H93.3187V35.772H81.5V37.772ZM93.3187 36.772C93.3042 37.7719 93.3049 37.7719 93.3056 37.7719C93.3058 37.7719 93.3065 37.7719 93.307 37.7719C93.308 37.7719 93.3091 37.7719 93.3102 37.7719C93.3125 37.772 93.3151 37.772 93.318 37.772C93.3238 37.772 93.3307 37.772 93.3388 37.772C93.3549 37.7719 93.3757 37.7716 93.4008 37.7708C93.4509 37.7694 93.5184 37.7663 93.6012 37.76C93.7666 37.7473 93.9945 37.7213 94.2675 37.6683C94.8119 37.5627 95.5469 37.3477 96.3243 36.908C97.917 36.0073 99.5642 34.2319 100.195 30.8755L98.2297 30.506C97.7045 33.2995 96.4049 34.5648 95.3398 35.1672C94.7882 35.4791 94.2667 35.6312 93.8866 35.7049C93.6974 35.7416 93.5461 35.7583 93.4479 35.7659C93.3989 35.7696 93.3636 35.7711 93.3437 35.7717C93.3338 35.7719 93.3278 35.772 93.326 35.772C93.3251 35.772 93.3252 35.772 93.3264 35.772C93.327 35.772 93.3279 35.772 93.329 35.772C93.3296 35.772 93.3302 35.772 93.3309 35.7721C93.3313 35.7721 93.3319 35.7721 93.332 35.7721C93.3326 35.7721 93.3333 35.7721 93.3187 36.772ZM99.2125 29.6907H75.4812V31.6907H99.2125V29.6907Z" fill="#C2AEA1" mask="url(#path-1-inside-1_826_92)"/>
</svg>
