<svg width="97" height="78" viewBox="0 0 97 78" fill="none" xmlns="http://www.w3.org/2000/svg">
<g filter="url(#filter0_d_737_83)">
<path d="M11 32H48.5V38.25H11V32Z" fill="#EFA923"/>
<path d="M4.75 16.375H36V22.625H4.75V16.375Z" fill="#EFA923"/>
<path d="M91.9968 33.8938L82.6218 12.0188C82.3812 11.4565 81.9808 10.9773 81.4703 10.6406C80.9597 10.304 80.3615 10.1247 79.75 10.125H70.375V3.875C70.375 3.0462 70.0457 2.25134 69.4597 1.66529C68.8736 1.07924 68.0788 0.75 67.25 0.75H17.2499V7H64.125V46.2375C62.701 47.0644 61.4548 48.1649 60.4583 49.4758C59.4617 50.7866 58.7346 52.2818 58.3187 53.875H38.6812C37.9206 50.9292 36.1117 48.3619 33.5937 46.6544C31.0756 44.9468 28.0212 44.2163 25.0031 44.5996C21.9849 44.983 19.2102 46.4539 17.1989 48.7368C15.1877 51.0196 14.0781 53.9576 14.0781 57C14.0781 60.0424 15.1877 62.9804 17.1989 65.2632C19.2102 67.5461 21.9849 69.017 25.0031 69.4004C28.0212 69.7837 31.0756 69.0532 33.5937 67.3456C36.1117 65.6381 37.9206 63.0708 38.6812 60.125H58.3187C58.9985 62.807 60.5532 65.1857 62.7368 66.8849C64.9203 68.5841 67.6081 69.5066 70.375 69.5066C73.1418 69.5066 75.8296 68.5841 78.0131 66.8849C80.1967 65.1857 81.7514 62.807 82.4312 60.125H89.125C89.9538 60.125 90.7486 59.7958 91.3347 59.2097C91.9207 58.6237 92.25 57.8288 92.25 57V35.125C92.2501 34.7016 92.164 34.2827 91.9968 33.8938ZM26.6249 63.25C25.3888 63.25 24.1804 62.8834 23.1526 62.1967C22.1248 61.5099 21.3237 60.5338 20.8507 59.3918C20.3777 58.2497 20.2539 56.9931 20.495 55.7807C20.7362 54.5683 21.3315 53.4547 22.2055 52.5806C23.0796 51.7065 24.1933 51.1112 25.4056 50.8701C26.618 50.6289 27.8747 50.7527 29.0167 51.2258C30.1588 51.6988 31.1349 52.4999 31.8216 53.5277C32.5084 54.5555 32.8749 55.7639 32.8749 57C32.8733 58.6571 32.2143 60.2458 31.0425 61.4176C29.8708 62.5893 28.282 63.2483 26.6249 63.25ZM70.375 16.375H77.6875L84.3875 32H70.375V16.375ZM70.375 63.25C69.1388 63.25 67.9304 62.8834 66.9026 62.1967C65.8748 61.5099 65.0738 60.5338 64.6007 59.3918C64.1277 58.2497 64.0039 56.9931 64.245 55.7807C64.4862 54.5683 65.0815 53.4547 65.9555 52.5806C66.8296 51.7065 67.9433 51.1112 69.1556 50.8701C70.368 50.6289 71.6247 50.7527 72.7667 51.2258C73.9088 51.6988 74.8849 52.4999 75.5716 53.5277C76.2584 54.5555 76.625 55.7639 76.625 57C76.6233 58.6571 75.9643 60.2458 74.7925 61.4176C73.6208 62.5893 72.032 63.2483 70.375 63.25ZM86 53.875H82.4312C81.7428 51.1982 80.1857 48.8255 78.0038 47.1289C75.822 45.4323 73.1388 44.5077 70.375 44.5V38.25H86V53.875Z" fill="#EFA923"/>
</g>
<defs>
<filter id="filter0_d_737_83" x="0.75" y="0.75" width="95.5" height="76.7566" filterUnits="userSpaceOnUse" color-interpolation-filters="sRGB">
<feFlood flood-opacity="0" result="BackgroundImageFix"/>
<feColorMatrix in="SourceAlpha" type="matrix" values="0 0 0 0 0 0 0 0 0 0 0 0 0 0 0 0 0 0 127 0" result="hardAlpha"/>
<feOffset dy="4"/>
<feGaussianBlur stdDeviation="2"/>
<feComposite in2="hardAlpha" operator="out"/>
<feColorMatrix type="matrix" values="0 0 0 0 0 0 0 0 0 0 0 0 0 0 0 0 0 0 0.25 0"/>
<feBlend mode="normal" in2="BackgroundImageFix" result="effect1_dropShadow_737_83"/>
<feBlend mode="normal" in="SourceGraphic" in2="effect1_dropShadow_737_83" result="shape"/>
</filter>
</defs>
</svg>
