<svg width="73" height="73" viewBox="0 0 73 73" fill="none" xmlns="http://www.w3.org/2000/svg">
<path d="M45.0275 25.8775H45.5275V25.3775V19.4488V18.9488H45.0275H39.6163C34.81 18.9488 31.3763 23.0495 31.3763 27.9725V30.75H26.0825H25.5825V31.25V36.8225V37.3225H26.0825H31.3763V53.5513V54.0513H31.8763H38.2625H38.7625V53.5513V37.3225H44.0075H44.424L44.4993 36.9129L45.523 31.3404L45.6315 30.75H45.0313H38.7625V27.3425C38.7625 26.8861 38.908 26.4991 39.1017 26.2358C39.3057 25.9585 39.5118 25.8775 39.6163 25.8775H45.0275ZM1 36.5C1 16.8936 16.8936 1 36.5 1C56.1064 1 72 16.8936 72 36.5C72 56.1064 56.1064 72 36.5 72C16.8936 72 1 56.1064 1 36.5Z" fill="#FFFDF1" stroke="#550312"/>
</svg>
